<?xml version="1.0" encoding="utf-8" standalone="no"?>
<!DOCTYPE svg PUBLIC "-//W3C//DTD SVG 1.1//EN"
  "http://www.w3.org/Graphics/SVG/1.1/DTD/svg11.dtd">
<svg xmlns:xlink="http://www.w3.org/1999/xlink" width="864pt" height="432pt" viewBox="0 0 864 432" xmlns="http://www.w3.org/2000/svg" version="1.1">
 <metadata>
  <rdf:RDF xmlns:dc="http://purl.org/dc/elements/1.1/" xmlns:cc="http://creativecommons.org/ns#" xmlns:rdf="http://www.w3.org/1999/02/22-rdf-syntax-ns#">
   <cc:Work>
    <dc:type rdf:resource="http://purl.org/dc/dcmitype/StillImage"/>
    <dc:date>2025-12-05T10:42:54.938800</dc:date>
    <dc:format>image/svg+xml</dc:format>
    <dc:creator>
     <cc:Agent>
      <dc:title>Matplotlib v3.10.7, https://matplotlib.org/</dc:title>
     </cc:Agent>
    </dc:creator>
   </cc:Work>
  </rdf:RDF>
 </metadata>
 <defs>
  <style type="text/css">*{stroke-linejoin: round; stroke-linecap: butt}</style>
 </defs>
 <g id="figure_1">
  <g id="patch_1">
   <path d="M 0 432 
L 864 432 
L 864 0 
L 0 0 
z
" style="fill: #ffffff"/>
  </g>
  <g id="axes_1">
   <g id="patch_2">
    <path d="M 57.17 407.12 
L 853.2 407.12 
L 853.2 26.88 
L 57.17 26.88 
z
" style="fill: #ffffff"/>
   </g>
   <g id="patch_3">
    <path d="M 58.165037 407.12 
L 60.155112 407.12 
L 60.155112 407.031329 
L 58.165037 407.031329 
z
" clip-path="url(#pc174a5bfea)" style="fill: #1f77b4"/>
   </g>
   <g id="patch_4">
    <path d="M 62.145187 407.12 
L 64.135262 407.12 
L 64.135262 407.031329 
L 62.145187 407.031329 
z
" clip-path="url(#pc174a5bfea)" style="fill: #1f77b4"/>
   </g>
   <g id="patch_5">
    <path d="M 66.125338 407.12 
L 68.115413 407.12 
L 68.115413 407.031329 
L 66.125338 407.031329 
z
" clip-path="url(#pc174a5bfea)" style="fill: #1f77b4"/>
   </g>
   <g id="patch_6">
    <path d="M 70.105487 407.12 
L 72.095562 407.12 
L 72.095562 407.031329 
L 70.105487 407.031329 
z
" clip-path="url(#pc174a5bfea)" style="fill: #1f77b4"/>
   </g>
   <g id="patch_7">
    <path d="M 74.085638 407.12 
L 76.075713 407.12 
L 76.075713 407.031329 
L 74.085638 407.031329 
z
" clip-path="url(#pc174a5bfea)" style="fill: #1f77b4"/>
   </g>
   <g id="patch_8">
    <path d="M 78.065787 407.12 
L 80.055863 407.12 
L 80.055863 407.031329 
L 78.065787 407.031329 
z
" clip-path="url(#pc174a5bfea)" style="fill: #1f77b4"/>
   </g>
   <g id="patch_9">
    <path d="M 82.045938 407.12 
L 84.036013 407.12 
L 84.036013 407.031329 
L 82.045938 407.031329 
z
" clip-path="url(#pc174a5bfea)" style="fill: #1f77b4"/>
   </g>
   <g id="patch_10">
    <path d="M 86.026088 407.12 
L 88.016163 407.12 
L 88.016163 406.942658 
L 86.026088 406.942658 
z
" clip-path="url(#pc174a5bfea)" style="fill: #1f77b4"/>
   </g>
   <g id="patch_11">
    <path d="M 90.006237 407.12 
L 91.996313 407.12 
L 91.996313 406.942658 
L 90.006237 406.942658 
z
" clip-path="url(#pc174a5bfea)" style="fill: #1f77b4"/>
   </g>
   <g id="patch_12">
    <path d="M 93.986388 407.12 
L 95.976463 407.12 
L 95.976463 406.942658 
L 93.986388 406.942658 
z
" clip-path="url(#pc174a5bfea)" style="fill: #1f77b4"/>
   </g>
   <g id="patch_13">
    <path d="M 97.966538 407.12 
L 99.956613 407.12 
L 99.956613 406.942658 
L 97.966538 406.942658 
z
" clip-path="url(#pc174a5bfea)" style="fill: #1f77b4"/>
   </g>
   <g id="patch_14">
    <path d="M 101.946687 407.12 
L 103.936763 407.12 
L 103.936763 406.942658 
L 101.946687 406.942658 
z
" clip-path="url(#pc174a5bfea)" style="fill: #1f77b4"/>
   </g>
   <g id="patch_15">
    <path d="M 105.926838 407.12 
L 107.916913 407.12 
L 107.916913 406.942658 
L 105.926838 406.942658 
z
" clip-path="url(#pc174a5bfea)" style="fill: #1f77b4"/>
   </g>
   <g id="patch_16">
    <path d="M 109.906988 407.12 
L 111.897063 407.12 
L 111.897063 406.853986 
L 109.906988 406.853986 
z
" clip-path="url(#pc174a5bfea)" style="fill: #1f77b4"/>
   </g>
   <g id="patch_17">
    <path d="M 113.887138 407.12 
L 115.877213 407.12 
L 115.877213 406.853986 
L 113.887138 406.853986 
z
" clip-path="url(#pc174a5bfea)" style="fill: #1f77b4"/>
   </g>
   <g id="patch_18">
    <path d="M 117.867288 407.12 
L 119.857363 407.12 
L 119.857363 406.853986 
L 117.867288 406.853986 
z
" clip-path="url(#pc174a5bfea)" style="fill: #1f77b4"/>
   </g>
   <g id="patch_19">
    <path d="M 121.847438 407.12 
L 123.837513 407.12 
L 123.837513 406.853986 
L 121.847438 406.853986 
z
" clip-path="url(#pc174a5bfea)" style="fill: #1f77b4"/>
   </g>
   <g id="patch_20">
    <path d="M 125.827588 407.12 
L 127.817663 407.12 
L 127.817663 406.853986 
L 125.827588 406.853986 
z
" clip-path="url(#pc174a5bfea)" style="fill: #1f77b4"/>
   </g>
   <g id="patch_21">
    <path d="M 129.807738 407.12 
L 131.797812 407.12 
L 131.797812 406.853986 
L 129.807738 406.853986 
z
" clip-path="url(#pc174a5bfea)" style="fill: #1f77b4"/>
   </g>
   <g id="patch_22">
    <path d="M 133.787888 407.12 
L 135.777963 407.12 
L 135.777963 406.853986 
L 133.787888 406.853986 
z
" clip-path="url(#pc174a5bfea)" style="fill: #1f77b4"/>
   </g>
   <g id="patch_23">
    <path d="M 137.768038 407.12 
L 139.758113 407.12 
L 139.758113 406.853986 
L 137.768038 406.853986 
z
" clip-path="url(#pc174a5bfea)" style="fill: #1f77b4"/>
   </g>
   <g id="patch_24">
    <path d="M 141.748188 407.12 
L 143.738262 407.12 
L 143.738262 406.765315 
L 141.748188 406.765315 
z
" clip-path="url(#pc174a5bfea)" style="fill: #1f77b4"/>
   </g>
   <g id="patch_25">
    <path d="M 145.728338 407.12 
L 147.718412 407.12 
L 147.718412 406.765315 
L 145.728338 406.765315 
z
" clip-path="url(#pc174a5bfea)" style="fill: #1f77b4"/>
   </g>
   <g id="patch_26">
    <path d="M 149.708488 407.12 
L 151.698563 407.12 
L 151.698563 406.765315 
L 149.708488 406.765315 
z
" clip-path="url(#pc174a5bfea)" style="fill: #1f77b4"/>
   </g>
   <g id="patch_27">
    <path d="M 153.688637 407.12 
L 155.678712 407.12 
L 155.678712 406.765315 
L 153.688637 406.765315 
z
" clip-path="url(#pc174a5bfea)" style="fill: #1f77b4"/>
   </g>
   <g id="patch_28">
    <path d="M 157.668788 407.12 
L 159.658862 407.12 
L 159.658862 406.765315 
L 157.668788 406.765315 
z
" clip-path="url(#pc174a5bfea)" style="fill: #1f77b4"/>
   </g>
   <g id="patch_29">
    <path d="M 161.648938 407.12 
L 163.639013 407.12 
L 163.639013 406.765315 
L 161.648938 406.765315 
z
" clip-path="url(#pc174a5bfea)" style="fill: #1f77b4"/>
   </g>
   <g id="patch_30">
    <path d="M 165.629088 407.12 
L 167.619163 407.12 
L 167.619163 406.676644 
L 165.629088 406.676644 
z
" clip-path="url(#pc174a5bfea)" style="fill: #1f77b4"/>
   </g>
   <g id="patch_31">
    <path d="M 169.609238 407.12 
L 171.599312 407.12 
L 171.599312 406.676644 
L 169.609238 406.676644 
z
" clip-path="url(#pc174a5bfea)" style="fill: #1f77b4"/>
   </g>
   <g id="patch_32">
    <path d="M 173.589388 407.12 
L 175.579463 407.12 
L 175.579463 406.676644 
L 173.589388 406.676644 
z
" clip-path="url(#pc174a5bfea)" style="fill: #1f77b4"/>
   </g>
   <g id="patch_33">
    <path d="M 177.569538 407.12 
L 179.559613 407.12 
L 179.559613 406.587973 
L 177.569538 406.587973 
z
" clip-path="url(#pc174a5bfea)" style="fill: #1f77b4"/>
   </g>
   <g id="patch_34">
    <path d="M 181.549688 407.12 
L 183.539762 407.12 
L 183.539762 406.499301 
L 181.549688 406.499301 
z
" clip-path="url(#pc174a5bfea)" style="fill: #1f77b4"/>
   </g>
   <g id="patch_35">
    <path d="M 185.529838 407.12 
L 187.519913 407.12 
L 187.519913 406.499301 
L 185.529838 406.499301 
z
" clip-path="url(#pc174a5bfea)" style="fill: #1f77b4"/>
   </g>
   <g id="patch_36">
    <path d="M 189.509988 407.12 
L 191.500063 407.12 
L 191.500063 406.499301 
L 189.509988 406.499301 
z
" clip-path="url(#pc174a5bfea)" style="fill: #1f77b4"/>
   </g>
   <g id="patch_37">
    <path d="M 193.490138 407.12 
L 195.480213 407.12 
L 195.480213 406.499301 
L 193.490138 406.499301 
z
" clip-path="url(#pc174a5bfea)" style="fill: #1f77b4"/>
   </g>
   <g id="patch_38">
    <path d="M 197.470288 407.12 
L 199.460363 407.12 
L 199.460363 406.499301 
L 197.470288 406.499301 
z
" clip-path="url(#pc174a5bfea)" style="fill: #1f77b4"/>
   </g>
   <g id="patch_39">
    <path d="M 201.450438 407.12 
L 203.440513 407.12 
L 203.440513 406.499301 
L 201.450438 406.499301 
z
" clip-path="url(#pc174a5bfea)" style="fill: #1f77b4"/>
   </g>
   <g id="patch_40">
    <path d="M 205.430588 407.12 
L 207.420663 407.12 
L 207.420663 406.41063 
L 205.430588 406.41063 
z
" clip-path="url(#pc174a5bfea)" style="fill: #1f77b4"/>
   </g>
   <g id="patch_41">
    <path d="M 209.410738 407.12 
L 211.400813 407.12 
L 211.400813 406.41063 
L 209.410738 406.41063 
z
" clip-path="url(#pc174a5bfea)" style="fill: #1f77b4"/>
   </g>
   <g id="patch_42">
    <path d="M 213.390888 407.12 
L 215.380963 407.12 
L 215.380963 406.41063 
L 213.390888 406.41063 
z
" clip-path="url(#pc174a5bfea)" style="fill: #1f77b4"/>
   </g>
   <g id="patch_43">
    <path d="M 217.371038 407.12 
L 219.361113 407.12 
L 219.361113 406.321959 
L 217.371038 406.321959 
z
" clip-path="url(#pc174a5bfea)" style="fill: #1f77b4"/>
   </g>
   <g id="patch_44">
    <path d="M 221.351188 407.12 
L 223.341263 407.12 
L 223.341263 406.321959 
L 221.351188 406.321959 
z
" clip-path="url(#pc174a5bfea)" style="fill: #1f77b4"/>
   </g>
   <g id="patch_45">
    <path d="M 225.331338 407.12 
L 227.321413 407.12 
L 227.321413 406.321959 
L 225.331338 406.321959 
z
" clip-path="url(#pc174a5bfea)" style="fill: #1f77b4"/>
   </g>
   <g id="patch_46">
    <path d="M 229.311488 407.12 
L 231.301563 407.12 
L 231.301563 406.233288 
L 229.311488 406.233288 
z
" clip-path="url(#pc174a5bfea)" style="fill: #1f77b4"/>
   </g>
   <g id="patch_47">
    <path d="M 233.291638 407.12 
L 235.281713 407.12 
L 235.281713 406.144616 
L 233.291638 406.144616 
z
" clip-path="url(#pc174a5bfea)" style="fill: #1f77b4"/>
   </g>
   <g id="patch_48">
    <path d="M 237.271788 407.12 
L 239.261863 407.12 
L 239.261863 406.144616 
L 237.271788 406.144616 
z
" clip-path="url(#pc174a5bfea)" style="fill: #1f77b4"/>
   </g>
   <g id="patch_49">
    <path d="M 241.251938 407.12 
L 243.242013 407.12 
L 243.242013 406.144616 
L 241.251938 406.144616 
z
" clip-path="url(#pc174a5bfea)" style="fill: #1f77b4"/>
   </g>
   <g id="patch_50">
    <path d="M 245.232088 407.12 
L 247.222163 407.12 
L 247.222163 406.144616 
L 245.232088 406.144616 
z
" clip-path="url(#pc174a5bfea)" style="fill: #1f77b4"/>
   </g>
   <g id="patch_51">
    <path d="M 249.212238 407.12 
L 251.202313 407.12 
L 251.202313 406.144616 
L 249.212238 406.144616 
z
" clip-path="url(#pc174a5bfea)" style="fill: #1f77b4"/>
   </g>
   <g id="patch_52">
    <path d="M 253.192388 407.12 
L 255.182463 407.12 
L 255.182463 406.055945 
L 253.192388 406.055945 
z
" clip-path="url(#pc174a5bfea)" style="fill: #1f77b4"/>
   </g>
   <g id="patch_53">
    <path d="M 257.172538 407.12 
L 259.162613 407.12 
L 259.162613 405.878603 
L 257.172538 405.878603 
z
" clip-path="url(#pc174a5bfea)" style="fill: #1f77b4"/>
   </g>
   <g id="patch_54">
    <path d="M 261.152688 407.12 
L 263.142763 407.12 
L 263.142763 405.789931 
L 261.152688 405.789931 
z
" clip-path="url(#pc174a5bfea)" style="fill: #1f77b4"/>
   </g>
   <g id="patch_55">
    <path d="M 265.132837 407.12 
L 267.122912 407.12 
L 267.122912 405.70126 
L 265.132837 405.70126 
z
" clip-path="url(#pc174a5bfea)" style="fill: #1f77b4"/>
   </g>
   <g id="patch_56">
    <path d="M 269.112988 407.12 
L 271.103063 407.12 
L 271.103063 405.70126 
L 269.112988 405.70126 
z
" clip-path="url(#pc174a5bfea)" style="fill: #1f77b4"/>
   </g>
   <g id="patch_57">
    <path d="M 273.093138 407.12 
L 275.083213 407.12 
L 275.083213 405.70126 
L 273.093138 405.70126 
z
" clip-path="url(#pc174a5bfea)" style="fill: #1f77b4"/>
   </g>
   <g id="patch_58">
    <path d="M 277.073287 407.12 
L 279.063362 407.12 
L 279.063362 405.612589 
L 277.073287 405.612589 
z
" clip-path="url(#pc174a5bfea)" style="fill: #1f77b4"/>
   </g>
   <g id="patch_59">
    <path d="M 281.053438 407.12 
L 283.043513 407.12 
L 283.043513 405.612589 
L 281.053438 405.612589 
z
" clip-path="url(#pc174a5bfea)" style="fill: #1f77b4"/>
   </g>
   <g id="patch_60">
    <path d="M 285.033588 407.12 
L 287.023663 407.12 
L 287.023663 405.523918 
L 285.033588 405.523918 
z
" clip-path="url(#pc174a5bfea)" style="fill: #1f77b4"/>
   </g>
   <g id="patch_61">
    <path d="M 289.013738 407.12 
L 291.003813 407.12 
L 291.003813 405.523918 
L 289.013738 405.523918 
z
" clip-path="url(#pc174a5bfea)" style="fill: #1f77b4"/>
   </g>
   <g id="patch_62">
    <path d="M 292.993888 407.12 
L 294.983963 407.12 
L 294.983963 405.435246 
L 292.993888 405.435246 
z
" clip-path="url(#pc174a5bfea)" style="fill: #1f77b4"/>
   </g>
   <g id="patch_63">
    <path d="M 296.974038 407.12 
L 298.964112 407.12 
L 298.964112 405.435246 
L 296.974038 405.435246 
z
" clip-path="url(#pc174a5bfea)" style="fill: #1f77b4"/>
   </g>
   <g id="patch_64">
    <path d="M 300.954188 407.12 
L 302.944263 407.12 
L 302.944263 405.435246 
L 300.954188 405.435246 
z
" clip-path="url(#pc174a5bfea)" style="fill: #1f77b4"/>
   </g>
   <g id="patch_65">
    <path d="M 304.934338 407.12 
L 306.924413 407.12 
L 306.924413 405.346575 
L 304.934338 405.346575 
z
" clip-path="url(#pc174a5bfea)" style="fill: #1f77b4"/>
   </g>
   <g id="patch_66">
    <path d="M 308.914488 407.12 
L 310.904562 407.12 
L 310.904562 405.346575 
L 308.914488 405.346575 
z
" clip-path="url(#pc174a5bfea)" style="fill: #1f77b4"/>
   </g>
   <g id="patch_67">
    <path d="M 312.894638 407.12 
L 314.884713 407.12 
L 314.884713 405.346575 
L 312.894638 405.346575 
z
" clip-path="url(#pc174a5bfea)" style="fill: #1f77b4"/>
   </g>
   <g id="patch_68">
    <path d="M 316.874788 407.12 
L 318.864863 407.12 
L 318.864863 405.346575 
L 316.874788 405.346575 
z
" clip-path="url(#pc174a5bfea)" style="fill: #1f77b4"/>
   </g>
   <g id="patch_69">
    <path d="M 320.854938 407.12 
L 322.845013 407.12 
L 322.845013 405.169233 
L 320.854938 405.169233 
z
" clip-path="url(#pc174a5bfea)" style="fill: #1f77b4"/>
   </g>
   <g id="patch_70">
    <path d="M 324.835088 407.12 
L 326.825163 407.12 
L 326.825163 405.169233 
L 324.835088 405.169233 
z
" clip-path="url(#pc174a5bfea)" style="fill: #1f77b4"/>
   </g>
   <g id="patch_71">
    <path d="M 328.815238 407.12 
L 330.805313 407.12 
L 330.805313 405.169233 
L 328.815238 405.169233 
z
" clip-path="url(#pc174a5bfea)" style="fill: #1f77b4"/>
   </g>
   <g id="patch_72">
    <path d="M 332.795388 407.12 
L 334.785463 407.12 
L 334.785463 405.080562 
L 332.795388 405.080562 
z
" clip-path="url(#pc174a5bfea)" style="fill: #1f77b4"/>
   </g>
   <g id="patch_73">
    <path d="M 336.775538 407.12 
L 338.765613 407.12 
L 338.765613 405.080562 
L 336.775538 405.080562 
z
" clip-path="url(#pc174a5bfea)" style="fill: #1f77b4"/>
   </g>
   <g id="patch_74">
    <path d="M 340.755688 407.12 
L 342.745763 407.12 
L 342.745763 404.903219 
L 340.755688 404.903219 
z
" clip-path="url(#pc174a5bfea)" style="fill: #1f77b4"/>
   </g>
   <g id="patch_75">
    <path d="M 344.735838 407.12 
L 346.725913 407.12 
L 346.725913 404.814548 
L 344.735838 404.814548 
z
" clip-path="url(#pc174a5bfea)" style="fill: #1f77b4"/>
   </g>
   <g id="patch_76">
    <path d="M 348.715988 407.12 
L 350.706063 407.12 
L 350.706063 404.814548 
L 348.715988 404.814548 
z
" clip-path="url(#pc174a5bfea)" style="fill: #1f77b4"/>
   </g>
   <g id="patch_77">
    <path d="M 352.696138 407.12 
L 354.686213 407.12 
L 354.686213 404.814548 
L 352.696138 404.814548 
z
" clip-path="url(#pc174a5bfea)" style="fill: #1f77b4"/>
   </g>
   <g id="patch_78">
    <path d="M 356.676288 407.12 
L 358.666363 407.12 
L 358.666363 404.814548 
L 356.676288 404.814548 
z
" clip-path="url(#pc174a5bfea)" style="fill: #1f77b4"/>
   </g>
   <g id="patch_79">
    <path d="M 360.656438 407.12 
L 362.646513 407.12 
L 362.646513 404.725877 
L 360.656438 404.725877 
z
" clip-path="url(#pc174a5bfea)" style="fill: #1f77b4"/>
   </g>
   <g id="patch_80">
    <path d="M 364.636588 407.12 
L 366.626663 407.12 
L 366.626663 404.548534 
L 364.636588 404.548534 
z
" clip-path="url(#pc174a5bfea)" style="fill: #1f77b4"/>
   </g>
   <g id="patch_81">
    <path d="M 368.616738 407.12 
L 370.606813 407.12 
L 370.606813 404.459863 
L 368.616738 404.459863 
z
" clip-path="url(#pc174a5bfea)" style="fill: #1f77b4"/>
   </g>
   <g id="patch_82">
    <path d="M 372.596888 407.12 
L 374.586963 407.12 
L 374.586963 404.371192 
L 372.596888 404.371192 
z
" clip-path="url(#pc174a5bfea)" style="fill: #1f77b4"/>
   </g>
   <g id="patch_83">
    <path d="M 376.577038 407.12 
L 378.567113 407.12 
L 378.567113 404.28252 
L 376.577038 404.28252 
z
" clip-path="url(#pc174a5bfea)" style="fill: #1f77b4"/>
   </g>
   <g id="patch_84">
    <path d="M 380.557188 407.12 
L 382.547263 407.12 
L 382.547263 404.28252 
L 380.557188 404.28252 
z
" clip-path="url(#pc174a5bfea)" style="fill: #1f77b4"/>
   </g>
   <g id="patch_85">
    <path d="M 384.537338 407.12 
L 386.527413 407.12 
L 386.527413 404.193849 
L 384.537338 404.193849 
z
" clip-path="url(#pc174a5bfea)" style="fill: #1f77b4"/>
   </g>
   <g id="patch_86">
    <path d="M 388.517488 407.12 
L 390.507563 407.12 
L 390.507563 404.105178 
L 388.517488 404.105178 
z
" clip-path="url(#pc174a5bfea)" style="fill: #1f77b4"/>
   </g>
   <g id="patch_87">
    <path d="M 392.497638 407.12 
L 394.487713 407.12 
L 394.487713 404.016507 
L 392.497638 404.016507 
z
" clip-path="url(#pc174a5bfea)" style="fill: #1f77b4"/>
   </g>
   <g id="patch_88">
    <path d="M 396.477788 407.12 
L 398.467863 407.12 
L 398.467863 403.927835 
L 396.477788 403.927835 
z
" clip-path="url(#pc174a5bfea)" style="fill: #1f77b4"/>
   </g>
   <g id="patch_89">
    <path d="M 400.457938 407.12 
L 402.448013 407.12 
L 402.448013 403.927835 
L 400.457938 403.927835 
z
" clip-path="url(#pc174a5bfea)" style="fill: #1f77b4"/>
   </g>
   <g id="patch_90">
    <path d="M 404.438088 407.12 
L 406.428163 407.12 
L 406.428163 403.661822 
L 404.438088 403.661822 
z
" clip-path="url(#pc174a5bfea)" style="fill: #1f77b4"/>
   </g>
   <g id="patch_91">
    <path d="M 408.418238 407.12 
L 410.408313 407.12 
L 410.408313 403.661822 
L 408.418238 403.661822 
z
" clip-path="url(#pc174a5bfea)" style="fill: #1f77b4"/>
   </g>
   <g id="patch_92">
    <path d="M 412.398388 407.12 
L 414.388463 407.12 
L 414.388463 403.484479 
L 412.398388 403.484479 
z
" clip-path="url(#pc174a5bfea)" style="fill: #1f77b4"/>
   </g>
   <g id="patch_93">
    <path d="M 416.378538 407.12 
L 418.368613 407.12 
L 418.368613 403.395808 
L 416.378538 403.395808 
z
" clip-path="url(#pc174a5bfea)" style="fill: #1f77b4"/>
   </g>
   <g id="patch_94">
    <path d="M 420.358688 407.12 
L 422.348763 407.12 
L 422.348763 403.218466 
L 420.358688 403.218466 
z
" clip-path="url(#pc174a5bfea)" style="fill: #1f77b4"/>
   </g>
   <g id="patch_95">
    <path d="M 424.338838 407.12 
L 426.328913 407.12 
L 426.328913 403.218466 
L 424.338838 403.218466 
z
" clip-path="url(#pc174a5bfea)" style="fill: #1f77b4"/>
   </g>
   <g id="patch_96">
    <path d="M 428.318988 407.12 
L 430.309063 407.12 
L 430.309063 403.129794 
L 428.318988 403.129794 
z
" clip-path="url(#pc174a5bfea)" style="fill: #1f77b4"/>
   </g>
   <g id="patch_97">
    <path d="M 432.299138 407.12 
L 434.289213 407.12 
L 434.289213 402.952452 
L 432.299138 402.952452 
z
" clip-path="url(#pc174a5bfea)" style="fill: #1f77b4"/>
   </g>
   <g id="patch_98">
    <path d="M 436.279288 407.12 
L 438.269363 407.12 
L 438.269363 402.420424 
L 436.279288 402.420424 
z
" clip-path="url(#pc174a5bfea)" style="fill: #1f77b4"/>
   </g>
   <g id="patch_99">
    <path d="M 440.259438 407.12 
L 442.249513 407.12 
L 442.249513 402.420424 
L 440.259438 402.420424 
z
" clip-path="url(#pc174a5bfea)" style="fill: #1f77b4"/>
   </g>
   <g id="patch_100">
    <path d="M 444.239588 407.12 
L 446.229663 407.12 
L 446.229663 402.420424 
L 444.239588 402.420424 
z
" clip-path="url(#pc174a5bfea)" style="fill: #1f77b4"/>
   </g>
   <g id="patch_101">
    <path d="M 448.219738 407.12 
L 450.209813 407.12 
L 450.209813 402.331753 
L 448.219738 402.331753 
z
" clip-path="url(#pc174a5bfea)" style="fill: #1f77b4"/>
   </g>
   <g id="patch_102">
    <path d="M 452.199888 407.12 
L 454.189963 407.12 
L 454.189963 402.243082 
L 452.199888 402.243082 
z
" clip-path="url(#pc174a5bfea)" style="fill: #1f77b4"/>
   </g>
   <g id="patch_103">
    <path d="M 456.180038 407.12 
L 458.170113 407.12 
L 458.170113 401.977068 
L 456.180038 401.977068 
z
" clip-path="url(#pc174a5bfea)" style="fill: #1f77b4"/>
   </g>
   <g id="patch_104">
    <path d="M 460.160188 407.12 
L 462.150263 407.12 
L 462.150263 401.888397 
L 460.160188 401.888397 
z
" clip-path="url(#pc174a5bfea)" style="fill: #1f77b4"/>
   </g>
   <g id="patch_105">
    <path d="M 464.140338 407.12 
L 466.130413 407.12 
L 466.130413 401.888397 
L 464.140338 401.888397 
z
" clip-path="url(#pc174a5bfea)" style="fill: #1f77b4"/>
   </g>
   <g id="patch_106">
    <path d="M 468.120488 407.12 
L 470.110563 407.12 
L 470.110563 401.799726 
L 468.120488 401.799726 
z
" clip-path="url(#pc174a5bfea)" style="fill: #1f77b4"/>
   </g>
   <g id="patch_107">
    <path d="M 472.100638 407.12 
L 474.090713 407.12 
L 474.090713 401.799726 
L 472.100638 401.799726 
z
" clip-path="url(#pc174a5bfea)" style="fill: #1f77b4"/>
   </g>
   <g id="patch_108">
    <path d="M 476.080788 407.12 
L 478.070863 407.12 
L 478.070863 401.622383 
L 476.080788 401.622383 
z
" clip-path="url(#pc174a5bfea)" style="fill: #1f77b4"/>
   </g>
   <g id="patch_109">
    <path d="M 480.060938 407.12 
L 482.051013 407.12 
L 482.051013 401.622383 
L 480.060938 401.622383 
z
" clip-path="url(#pc174a5bfea)" style="fill: #1f77b4"/>
   </g>
   <g id="patch_110">
    <path d="M 484.041088 407.12 
L 486.031163 407.12 
L 486.031163 401.622383 
L 484.041088 401.622383 
z
" clip-path="url(#pc174a5bfea)" style="fill: #1f77b4"/>
   </g>
   <g id="patch_111">
    <path d="M 488.021238 407.12 
L 490.011313 407.12 
L 490.011313 401.445041 
L 488.021238 401.445041 
z
" clip-path="url(#pc174a5bfea)" style="fill: #1f77b4"/>
   </g>
   <g id="patch_112">
    <path d="M 492.001388 407.12 
L 493.991463 407.12 
L 493.991463 401.445041 
L 492.001388 401.445041 
z
" clip-path="url(#pc174a5bfea)" style="fill: #1f77b4"/>
   </g>
   <g id="patch_113">
    <path d="M 495.981538 407.12 
L 497.971613 407.12 
L 497.971613 401.35637 
L 495.981538 401.35637 
z
" clip-path="url(#pc174a5bfea)" style="fill: #1f77b4"/>
   </g>
   <g id="patch_114">
    <path d="M 499.961688 407.12 
L 501.951763 407.12 
L 501.951763 400.913013 
L 499.961688 400.913013 
z
" clip-path="url(#pc174a5bfea)" style="fill: #1f77b4"/>
   </g>
   <g id="patch_115">
    <path d="M 503.941838 407.12 
L 505.931913 407.12 
L 505.931913 400.913013 
L 503.941838 400.913013 
z
" clip-path="url(#pc174a5bfea)" style="fill: #1f77b4"/>
   </g>
   <g id="patch_116">
    <path d="M 507.921988 407.12 
L 509.912063 407.12 
L 509.912063 400.647 
L 507.921988 400.647 
z
" clip-path="url(#pc174a5bfea)" style="fill: #1f77b4"/>
   </g>
   <g id="patch_117">
    <path d="M 511.902138 407.12 
L 513.892213 407.12 
L 513.892213 400.292315 
L 511.902138 400.292315 
z
" clip-path="url(#pc174a5bfea)" style="fill: #1f77b4"/>
   </g>
   <g id="patch_118">
    <path d="M 515.882288 407.12 
L 517.872363 407.12 
L 517.872363 400.026301 
L 515.882288 400.026301 
z
" clip-path="url(#pc174a5bfea)" style="fill: #1f77b4"/>
   </g>
   <g id="patch_119">
    <path d="M 519.862438 407.12 
L 521.852513 407.12 
L 521.852513 399.848959 
L 519.862438 399.848959 
z
" clip-path="url(#pc174a5bfea)" style="fill: #1f77b4"/>
   </g>
   <g id="patch_120">
    <path d="M 523.842588 407.12 
L 525.832663 407.12 
L 525.832663 399.405602 
L 523.842588 399.405602 
z
" clip-path="url(#pc174a5bfea)" style="fill: #1f77b4"/>
   </g>
   <g id="patch_121">
    <path d="M 527.822738 407.12 
L 529.812813 407.12 
L 529.812813 399.050917 
L 527.822738 399.050917 
z
" clip-path="url(#pc174a5bfea)" style="fill: #1f77b4"/>
   </g>
   <g id="patch_122">
    <path d="M 531.802887 407.12 
L 533.792963 407.12 
L 533.792963 398.696232 
L 531.802887 398.696232 
z
" clip-path="url(#pc174a5bfea)" style="fill: #1f77b4"/>
   </g>
   <g id="patch_123">
    <path d="M 535.783038 407.12 
L 537.773113 407.12 
L 537.773113 398.607561 
L 535.783038 398.607561 
z
" clip-path="url(#pc174a5bfea)" style="fill: #1f77b4"/>
   </g>
   <g id="patch_124">
    <path d="M 539.763188 407.12 
L 541.753263 407.12 
L 541.753263 398.341548 
L 539.763188 398.341548 
z
" clip-path="url(#pc174a5bfea)" style="fill: #1f77b4"/>
   </g>
   <g id="patch_125">
    <path d="M 543.743338 407.12 
L 545.733413 407.12 
L 545.733413 398.164205 
L 543.743338 398.164205 
z
" clip-path="url(#pc174a5bfea)" style="fill: #1f77b4"/>
   </g>
   <g id="patch_126">
    <path d="M 547.723488 407.12 
L 549.713563 407.12 
L 549.713563 397.986863 
L 547.723488 397.986863 
z
" clip-path="url(#pc174a5bfea)" style="fill: #1f77b4"/>
   </g>
   <g id="patch_127">
    <path d="M 551.703638 407.12 
L 553.693713 407.12 
L 553.693713 397.632178 
L 551.703638 397.632178 
z
" clip-path="url(#pc174a5bfea)" style="fill: #1f77b4"/>
   </g>
   <g id="patch_128">
    <path d="M 555.683787 407.12 
L 557.673863 407.12 
L 557.673863 397.011479 
L 555.683787 397.011479 
z
" clip-path="url(#pc174a5bfea)" style="fill: #1f77b4"/>
   </g>
   <g id="patch_129">
    <path d="M 559.663938 407.12 
L 561.654013 407.12 
L 561.654013 396.745465 
L 559.663938 396.745465 
z
" clip-path="url(#pc174a5bfea)" style="fill: #1f77b4"/>
   </g>
   <g id="patch_130">
    <path d="M 563.644088 407.12 
L 565.634163 407.12 
L 565.634163 396.39078 
L 563.644088 396.39078 
z
" clip-path="url(#pc174a5bfea)" style="fill: #1f77b4"/>
   </g>
   <g id="patch_131">
    <path d="M 567.624238 407.12 
L 569.614313 407.12 
L 569.614313 396.036095 
L 567.624238 396.036095 
z
" clip-path="url(#pc174a5bfea)" style="fill: #1f77b4"/>
   </g>
   <g id="patch_132">
    <path d="M 571.604388 407.12 
L 573.594463 407.12 
L 573.594463 395.68141 
L 571.604388 395.68141 
z
" clip-path="url(#pc174a5bfea)" style="fill: #1f77b4"/>
   </g>
   <g id="patch_133">
    <path d="M 575.584538 407.12 
L 577.574613 407.12 
L 577.574613 395.060712 
L 575.584538 395.060712 
z
" clip-path="url(#pc174a5bfea)" style="fill: #1f77b4"/>
   </g>
   <g id="patch_134">
    <path d="M 579.564688 407.12 
L 581.554763 407.12 
L 581.554763 394.706027 
L 579.564688 394.706027 
z
" clip-path="url(#pc174a5bfea)" style="fill: #1f77b4"/>
   </g>
   <g id="patch_135">
    <path d="M 583.544838 407.12 
L 585.534913 407.12 
L 585.534913 394.528684 
L 583.544838 394.528684 
z
" clip-path="url(#pc174a5bfea)" style="fill: #1f77b4"/>
   </g>
   <g id="patch_136">
    <path d="M 587.524988 407.12 
L 589.515063 407.12 
L 589.515063 394.528684 
L 587.524988 394.528684 
z
" clip-path="url(#pc174a5bfea)" style="fill: #1f77b4"/>
   </g>
   <g id="patch_137">
    <path d="M 591.505138 407.12 
L 593.495213 407.12 
L 593.495213 394.262671 
L 591.505138 394.262671 
z
" clip-path="url(#pc174a5bfea)" style="fill: #1f77b4"/>
   </g>
   <g id="patch_138">
    <path d="M 595.485288 407.12 
L 597.475363 407.12 
L 597.475363 392.400575 
L 595.485288 392.400575 
z
" clip-path="url(#pc174a5bfea)" style="fill: #1f77b4"/>
   </g>
   <g id="patch_139">
    <path d="M 599.465438 407.12 
L 601.455513 407.12 
L 601.455513 391.691205 
L 599.465438 391.691205 
z
" clip-path="url(#pc174a5bfea)" style="fill: #1f77b4"/>
   </g>
   <g id="patch_140">
    <path d="M 603.445588 407.12 
L 605.435663 407.12 
L 605.435663 391.425191 
L 603.445588 391.425191 
z
" clip-path="url(#pc174a5bfea)" style="fill: #1f77b4"/>
   </g>
   <g id="patch_141">
    <path d="M 607.425738 407.12 
L 609.415813 407.12 
L 609.415813 391.247849 
L 607.425738 391.247849 
z
" clip-path="url(#pc174a5bfea)" style="fill: #1f77b4"/>
   </g>
   <g id="patch_142">
    <path d="M 611.405888 407.12 
L 613.395963 407.12 
L 613.395963 390.095122 
L 611.405888 390.095122 
z
" clip-path="url(#pc174a5bfea)" style="fill: #1f77b4"/>
   </g>
   <g id="patch_143">
    <path d="M 615.386038 407.12 
L 617.376113 407.12 
L 617.376113 388.765054 
L 615.386038 388.765054 
z
" clip-path="url(#pc174a5bfea)" style="fill: #1f77b4"/>
   </g>
   <g id="patch_144">
    <path d="M 619.366188 407.12 
L 621.356263 407.12 
L 621.356263 388.587711 
L 619.366188 388.587711 
z
" clip-path="url(#pc174a5bfea)" style="fill: #1f77b4"/>
   </g>
   <g id="patch_145">
    <path d="M 623.346338 407.12 
L 625.336413 407.12 
L 625.336413 388.055684 
L 623.346338 388.055684 
z
" clip-path="url(#pc174a5bfea)" style="fill: #1f77b4"/>
   </g>
   <g id="patch_146">
    <path d="M 627.326488 407.12 
L 629.316563 407.12 
L 629.316563 387.878341 
L 627.326488 387.878341 
z
" clip-path="url(#pc174a5bfea)" style="fill: #1f77b4"/>
   </g>
   <g id="patch_147">
    <path d="M 631.306638 407.12 
L 633.296713 407.12 
L 633.296713 387.434985 
L 631.306638 387.434985 
z
" clip-path="url(#pc174a5bfea)" style="fill: #1f77b4"/>
   </g>
   <g id="patch_148">
    <path d="M 635.286788 407.12 
L 637.276863 407.12 
L 637.276863 387.434985 
L 635.286788 387.434985 
z
" clip-path="url(#pc174a5bfea)" style="fill: #1f77b4"/>
   </g>
   <g id="patch_149">
    <path d="M 639.266938 407.12 
L 641.257013 407.12 
L 641.257013 386.282259 
L 639.266938 386.282259 
z
" clip-path="url(#pc174a5bfea)" style="fill: #1f77b4"/>
   </g>
   <g id="patch_150">
    <path d="M 643.247088 407.12 
L 645.237163 407.12 
L 645.237163 386.282259 
L 643.247088 386.282259 
z
" clip-path="url(#pc174a5bfea)" style="fill: #1f77b4"/>
   </g>
   <g id="patch_151">
    <path d="M 647.227238 407.12 
L 649.217313 407.12 
L 649.217313 386.016246 
L 647.227238 386.016246 
z
" clip-path="url(#pc174a5bfea)" style="fill: #1f77b4"/>
   </g>
   <g id="patch_152">
    <path d="M 651.207388 407.12 
L 653.197463 407.12 
L 653.197463 385.927574 
L 651.207388 385.927574 
z
" clip-path="url(#pc174a5bfea)" style="fill: #1f77b4"/>
   </g>
   <g id="patch_153">
    <path d="M 655.187538 407.12 
L 657.177613 407.12 
L 657.177613 382.558067 
L 655.187538 382.558067 
z
" clip-path="url(#pc174a5bfea)" style="fill: #1f77b4"/>
   </g>
   <g id="patch_154">
    <path d="M 659.167688 407.12 
L 661.157763 407.12 
L 661.157763 381.671355 
L 659.167688 381.671355 
z
" clip-path="url(#pc174a5bfea)" style="fill: #1f77b4"/>
   </g>
   <g id="patch_155">
    <path d="M 663.147838 407.12 
L 665.137913 407.12 
L 665.137913 381.582684 
L 663.147838 381.582684 
z
" clip-path="url(#pc174a5bfea)" style="fill: #1f77b4"/>
   </g>
   <g id="patch_156">
    <path d="M 667.127988 407.12 
L 669.118063 407.12 
L 669.118063 381.582684 
L 667.127988 381.582684 
z
" clip-path="url(#pc174a5bfea)" style="fill: #1f77b4"/>
   </g>
   <g id="patch_157">
    <path d="M 671.108138 407.12 
L 673.098213 407.12 
L 673.098213 381.31667 
L 671.108138 381.31667 
z
" clip-path="url(#pc174a5bfea)" style="fill: #1f77b4"/>
   </g>
   <g id="patch_158">
    <path d="M 675.088288 407.12 
L 677.078363 407.12 
L 677.078363 381.227999 
L 675.088288 381.227999 
z
" clip-path="url(#pc174a5bfea)" style="fill: #1f77b4"/>
   </g>
   <g id="patch_159">
    <path d="M 679.068438 407.12 
L 681.058513 407.12 
L 681.058513 380.784643 
L 679.068438 380.784643 
z
" clip-path="url(#pc174a5bfea)" style="fill: #1f77b4"/>
   </g>
   <g id="patch_160">
    <path d="M 683.048588 407.12 
L 685.038663 407.12 
L 685.038663 380.518629 
L 683.048588 380.518629 
z
" clip-path="url(#pc174a5bfea)" style="fill: #1f77b4"/>
   </g>
   <g id="patch_161">
    <path d="M 687.028738 407.12 
L 689.018813 407.12 
L 689.018813 379.720588 
L 687.028738 379.720588 
z
" clip-path="url(#pc174a5bfea)" style="fill: #1f77b4"/>
   </g>
   <g id="patch_162">
    <path d="M 691.008888 407.12 
L 692.998963 407.12 
L 692.998963 378.124505 
L 691.008888 378.124505 
z
" clip-path="url(#pc174a5bfea)" style="fill: #1f77b4"/>
   </g>
   <g id="patch_163">
    <path d="M 694.989038 407.12 
L 696.979113 407.12 
L 696.979113 375.464368 
L 694.989038 375.464368 
z
" clip-path="url(#pc174a5bfea)" style="fill: #1f77b4"/>
   </g>
   <g id="patch_164">
    <path d="M 698.969188 407.12 
L 700.959263 407.12 
L 700.959263 374.1343 
L 698.969188 374.1343 
z
" clip-path="url(#pc174a5bfea)" style="fill: #1f77b4"/>
   </g>
   <g id="patch_165">
    <path d="M 702.949338 407.12 
L 704.939413 407.12 
L 704.939413 372.892902 
L 702.949338 372.892902 
z
" clip-path="url(#pc174a5bfea)" style="fill: #1f77b4"/>
   </g>
   <g id="patch_166">
    <path d="M 706.929488 407.12 
L 708.919563 407.12 
L 708.919563 366.331231 
L 706.929488 366.331231 
z
" clip-path="url(#pc174a5bfea)" style="fill: #1f77b4"/>
   </g>
   <g id="patch_167">
    <path d="M 710.909638 407.12 
L 712.899713 407.12 
L 712.899713 364.380464 
L 710.909638 364.380464 
z
" clip-path="url(#pc174a5bfea)" style="fill: #1f77b4"/>
   </g>
   <g id="patch_168">
    <path d="M 714.889788 407.12 
L 716.879863 407.12 
L 716.879863 363.759765 
L 714.889788 363.759765 
z
" clip-path="url(#pc174a5bfea)" style="fill: #1f77b4"/>
   </g>
   <g id="patch_169">
    <path d="M 718.869938 407.12 
L 720.860013 407.12 
L 720.860013 363.316409 
L 718.869938 363.316409 
z
" clip-path="url(#pc174a5bfea)" style="fill: #1f77b4"/>
   </g>
   <g id="patch_170">
    <path d="M 722.850088 407.12 
L 724.840163 407.12 
L 724.840163 362.341025 
L 722.850088 362.341025 
z
" clip-path="url(#pc174a5bfea)" style="fill: #1f77b4"/>
   </g>
   <g id="patch_171">
    <path d="M 726.830238 407.12 
L 728.820313 407.12 
L 728.820313 360.301587 
L 726.830238 360.301587 
z
" clip-path="url(#pc174a5bfea)" style="fill: #1f77b4"/>
   </g>
   <g id="patch_172">
    <path d="M 730.810388 407.12 
L 732.800463 407.12 
L 732.800463 359.326203 
L 730.810388 359.326203 
z
" clip-path="url(#pc174a5bfea)" style="fill: #1f77b4"/>
   </g>
   <g id="patch_173">
    <path d="M 734.790538 407.12 
L 736.780613 407.12 
L 736.780613 357.109422 
L 734.790538 357.109422 
z
" clip-path="url(#pc174a5bfea)" style="fill: #1f77b4"/>
   </g>
   <g id="patch_174">
    <path d="M 738.770688 407.12 
L 740.760763 407.12 
L 740.760763 354.626627 
L 738.770688 354.626627 
z
" clip-path="url(#pc174a5bfea)" style="fill: #1f77b4"/>
   </g>
   <g id="patch_175">
    <path d="M 742.750838 407.12 
L 744.740913 407.12 
L 744.740913 350.636422 
L 742.750838 350.636422 
z
" clip-path="url(#pc174a5bfea)" style="fill: #1f77b4"/>
   </g>
   <g id="patch_176">
    <path d="M 746.730988 407.12 
L 748.721063 407.12 
L 748.721063 350.636422 
L 746.730988 350.636422 
z
" clip-path="url(#pc174a5bfea)" style="fill: #1f77b4"/>
   </g>
   <g id="patch_177">
    <path d="M 750.711138 407.12 
L 752.701213 407.12 
L 752.701213 344.163421 
L 750.711138 344.163421 
z
" clip-path="url(#pc174a5bfea)" style="fill: #1f77b4"/>
   </g>
   <g id="patch_178">
    <path d="M 754.691288 407.12 
L 756.681363 407.12 
L 756.681363 339.286503 
L 754.691288 339.286503 
z
" clip-path="url(#pc174a5bfea)" style="fill: #1f77b4"/>
   </g>
   <g id="patch_179">
    <path d="M 758.671438 407.12 
L 760.661513 407.12 
L 760.661513 335.916996 
L 758.671438 335.916996 
z
" clip-path="url(#pc174a5bfea)" style="fill: #1f77b4"/>
   </g>
   <g id="patch_180">
    <path d="M 762.651588 407.12 
L 764.641663 407.12 
L 764.641663 330.685393 
L 762.651588 330.685393 
z
" clip-path="url(#pc174a5bfea)" style="fill: #1f77b4"/>
   </g>
   <g id="patch_181">
    <path d="M 766.631738 407.12 
L 768.621813 407.12 
L 768.621813 327.138544 
L 766.631738 327.138544 
z
" clip-path="url(#pc174a5bfea)" style="fill: #1f77b4"/>
   </g>
   <g id="patch_182">
    <path d="M 770.611888 407.12 
L 772.601963 407.12 
L 772.601963 322.616311 
L 770.611888 322.616311 
z
" clip-path="url(#pc174a5bfea)" style="fill: #1f77b4"/>
   </g>
   <g id="patch_183">
    <path d="M 774.592038 407.12 
L 776.582113 407.12 
L 776.582113 318.98079 
L 774.592038 318.98079 
z
" clip-path="url(#pc174a5bfea)" style="fill: #1f77b4"/>
   </g>
   <g id="patch_184">
    <path d="M 778.572188 407.12 
L 780.562263 407.12 
L 780.562263 315.788626 
L 778.572188 315.788626 
z
" clip-path="url(#pc174a5bfea)" style="fill: #1f77b4"/>
   </g>
   <g id="patch_185">
    <path d="M 782.552338 407.12 
L 784.542413 407.12 
L 784.542413 292.113405 
L 782.552338 292.113405 
z
" clip-path="url(#pc174a5bfea)" style="fill: #1f77b4"/>
   </g>
   <g id="patch_186">
    <path d="M 786.532488 407.12 
L 788.522563 407.12 
L 788.522563 287.502501 
L 786.532488 287.502501 
z
" clip-path="url(#pc174a5bfea)" style="fill: #1f77b4"/>
   </g>
   <g id="patch_187">
    <path d="M 790.512638 407.12 
L 792.502713 407.12 
L 792.502713 282.182227 
L 790.512638 282.182227 
z
" clip-path="url(#pc174a5bfea)" style="fill: #1f77b4"/>
   </g>
   <g id="patch_188">
    <path d="M 794.492788 407.12 
L 796.482863 407.12 
L 796.482863 280.231459 
L 794.492788 280.231459 
z
" clip-path="url(#pc174a5bfea)" style="fill: #1f77b4"/>
   </g>
   <g id="patch_189">
    <path d="M 798.472938 407.12 
L 800.463013 407.12 
L 800.463013 279.699432 
L 798.472938 279.699432 
z
" clip-path="url(#pc174a5bfea)" style="fill: #1f77b4"/>
   </g>
   <g id="patch_190">
    <path d="M 802.453088 407.12 
L 804.443163 407.12 
L 804.443163 276.063911 
L 802.453088 276.063911 
z
" clip-path="url(#pc174a5bfea)" style="fill: #1f77b4"/>
   </g>
   <g id="patch_191">
    <path d="M 806.433238 407.12 
L 808.423313 407.12 
L 808.423313 231.728293 
L 806.433238 231.728293 
z
" clip-path="url(#pc174a5bfea)" style="fill: #1f77b4"/>
   </g>
   <g id="patch_192">
    <path d="M 810.413388 407.12 
L 812.403463 407.12 
L 812.403463 229.866197 
L 810.413388 229.866197 
z
" clip-path="url(#pc174a5bfea)" style="fill: #1f77b4"/>
   </g>
   <g id="patch_193">
    <path d="M 814.393538 407.12 
L 816.383613 407.12 
L 816.383613 226.762703 
L 814.393538 226.762703 
z
" clip-path="url(#pc174a5bfea)" style="fill: #1f77b4"/>
   </g>
   <g id="patch_194">
    <path d="M 818.373688 407.12 
L 820.363763 407.12 
L 820.363763 223.127183 
L 818.373688 223.127183 
z
" clip-path="url(#pc174a5bfea)" style="fill: #1f77b4"/>
   </g>
   <g id="patch_195">
    <path d="M 822.353838 407.12 
L 824.343913 407.12 
L 824.343913 206.45699 
L 822.353838 206.45699 
z
" clip-path="url(#pc174a5bfea)" style="fill: #1f77b4"/>
   </g>
   <g id="patch_196">
    <path d="M 826.333988 407.12 
L 828.324063 407.12 
L 828.324063 190.141482 
L 826.333988 190.141482 
z
" clip-path="url(#pc174a5bfea)" style="fill: #1f77b4"/>
   </g>
   <g id="patch_197">
    <path d="M 830.314138 407.12 
L 832.304213 407.12 
L 832.304213 183.491139 
L 830.314138 183.491139 
z
" clip-path="url(#pc174a5bfea)" style="fill: #1f77b4"/>
   </g>
   <g id="patch_198">
    <path d="M 834.294288 407.12 
L 836.284363 407.12 
L 836.284363 179.057578 
L 834.294288 179.057578 
z
" clip-path="url(#pc174a5bfea)" style="fill: #1f77b4"/>
   </g>
   <g id="patch_199">
    <path d="M 838.274438 407.12 
L 840.264513 407.12 
L 840.264513 166.022906 
L 838.274438 166.022906 
z
" clip-path="url(#pc174a5bfea)" style="fill: #1f77b4"/>
   </g>
   <g id="patch_200">
    <path d="M 842.254588 407.12 
L 844.244663 407.12 
L 844.244663 138.534822 
L 842.254588 138.534822 
z
" clip-path="url(#pc174a5bfea)" style="fill: #1f77b4"/>
   </g>
   <g id="patch_201">
    <path d="M 846.234738 407.12 
L 848.224813 407.12 
L 848.224813 106.967862 
L 846.234738 106.967862 
z
" clip-path="url(#pc174a5bfea)" style="fill: #1f77b4"/>
   </g>
   <g id="patch_202">
    <path d="M 850.214888 407.12 
L 852.204963 407.12 
L 852.204963 44.986667 
L 850.214888 44.986667 
z
" clip-path="url(#pc174a5bfea)" style="fill: #1f77b4"/>
   </g>
   <g id="matplotlib.axis_1">
    <g id="xtick_1"/>
    <g id="xtick_2"/>
    <g id="xtick_3"/>
    <g id="xtick_4"/>
    <g id="xtick_5"/>
    <g id="xtick_6"/>
    <g id="xtick_7"/>
    <g id="xtick_8"/>
    <g id="xtick_9"/>
    <g id="xtick_10"/>
    <g id="xtick_11"/>
    <g id="xtick_12"/>
    <g id="xtick_13"/>
    <g id="xtick_14"/>
    <g id="xtick_15"/>
    <g id="xtick_16"/>
    <g id="xtick_17"/>
    <g id="xtick_18"/>
    <g id="xtick_19"/>
    <g id="xtick_20"/>
    <g id="xtick_21"/>
    <g id="xtick_22"/>
    <g id="xtick_23"/>
    <g id="xtick_24"/>
    <g id="xtick_25"/>
    <g id="xtick_26"/>
    <g id="xtick_27"/>
    <g id="xtick_28"/>
    <g id="xtick_29"/>
    <g id="xtick_30"/>
    <g id="xtick_31"/>
    <g id="xtick_32"/>
    <g id="xtick_33"/>
    <g id="xtick_34"/>
    <g id="xtick_35"/>
    <g id="xtick_36"/>
    <g id="xtick_37"/>
    <g id="xtick_38"/>
    <g id="xtick_39"/>
    <g id="xtick_40"/>
    <g id="xtick_41"/>
    <g id="xtick_42"/>
    <g id="xtick_43"/>
    <g id="xtick_44"/>
    <g id="xtick_45"/>
    <g id="xtick_46"/>
    <g id="xtick_47"/>
    <g id="xtick_48"/>
    <g id="xtick_49"/>
    <g id="xtick_50"/>
    <g id="xtick_51"/>
    <g id="xtick_52"/>
    <g id="xtick_53"/>
    <g id="xtick_54"/>
    <g id="xtick_55"/>
    <g id="xtick_56"/>
    <g id="xtick_57"/>
    <g id="xtick_58"/>
    <g id="xtick_59"/>
    <g id="xtick_60"/>
    <g id="xtick_61"/>
    <g id="xtick_62"/>
    <g id="xtick_63"/>
    <g id="xtick_64"/>
    <g id="xtick_65"/>
    <g id="xtick_66"/>
    <g id="xtick_67"/>
    <g id="xtick_68"/>
    <g id="xtick_69"/>
    <g id="xtick_70"/>
    <g id="xtick_71"/>
    <g id="xtick_72"/>
    <g id="xtick_73"/>
    <g id="xtick_74"/>
    <g id="xtick_75"/>
    <g id="xtick_76"/>
    <g id="xtick_77"/>
    <g id="xtick_78"/>
    <g id="xtick_79"/>
    <g id="xtick_80"/>
    <g id="xtick_81"/>
    <g id="xtick_82"/>
    <g id="xtick_83"/>
    <g id="xtick_84"/>
    <g id="xtick_85"/>
    <g id="xtick_86"/>
    <g id="xtick_87"/>
    <g id="xtick_88"/>
    <g id="xtick_89"/>
    <g id="xtick_90"/>
    <g id="xtick_91"/>
    <g id="xtick_92"/>
    <g id="xtick_93"/>
    <g id="xtick_94"/>
    <g id="xtick_95"/>
    <g id="xtick_96"/>
    <g id="xtick_97"/>
    <g id="xtick_98"/>
    <g id="xtick_99"/>
    <g id="xtick_100"/>
    <g id="xtick_101"/>
    <g id="xtick_102"/>
    <g id="xtick_103"/>
    <g id="xtick_104"/>
    <g id="xtick_105"/>
    <g id="xtick_106"/>
    <g id="xtick_107"/>
    <g id="xtick_108"/>
    <g id="xtick_109"/>
    <g id="xtick_110"/>
    <g id="xtick_111"/>
    <g id="xtick_112"/>
    <g id="xtick_113"/>
    <g id="xtick_114"/>
    <g id="xtick_115"/>
    <g id="xtick_116"/>
    <g id="xtick_117"/>
    <g id="xtick_118"/>
    <g id="xtick_119"/>
    <g id="xtick_120"/>
    <g id="xtick_121"/>
    <g id="xtick_122"/>
    <g id="xtick_123"/>
    <g id="xtick_124"/>
    <g id="xtick_125"/>
    <g id="xtick_126"/>
    <g id="xtick_127"/>
    <g id="xtick_128"/>
    <g id="xtick_129"/>
    <g id="xtick_130"/>
    <g id="xtick_131"/>
    <g id="xtick_132"/>
    <g id="xtick_133"/>
    <g id="xtick_134"/>
    <g id="xtick_135"/>
    <g id="xtick_136"/>
    <g id="xtick_137"/>
    <g id="xtick_138"/>
    <g id="xtick_139"/>
    <g id="xtick_140"/>
    <g id="xtick_141"/>
    <g id="xtick_142"/>
    <g id="xtick_143"/>
    <g id="xtick_144"/>
    <g id="xtick_145"/>
    <g id="xtick_146"/>
    <g id="xtick_147"/>
    <g id="xtick_148"/>
    <g id="xtick_149"/>
    <g id="xtick_150"/>
    <g id="xtick_151"/>
    <g id="xtick_152"/>
    <g id="xtick_153"/>
    <g id="xtick_154"/>
    <g id="xtick_155"/>
    <g id="xtick_156"/>
    <g id="xtick_157"/>
    <g id="xtick_158"/>
    <g id="xtick_159"/>
    <g id="xtick_160"/>
    <g id="xtick_161"/>
    <g id="xtick_162"/>
    <g id="xtick_163"/>
    <g id="xtick_164"/>
    <g id="xtick_165"/>
    <g id="xtick_166"/>
    <g id="xtick_167"/>
    <g id="xtick_168"/>
    <g id="xtick_169"/>
    <g id="xtick_170"/>
    <g id="xtick_171"/>
    <g id="xtick_172"/>
    <g id="xtick_173"/>
    <g id="xtick_174"/>
    <g id="xtick_175"/>
    <g id="xtick_176"/>
    <g id="xtick_177"/>
    <g id="xtick_178"/>
    <g id="xtick_179"/>
    <g id="xtick_180"/>
    <g id="xtick_181"/>
    <g id="xtick_182"/>
    <g id="xtick_183"/>
    <g id="xtick_184"/>
    <g id="xtick_185"/>
    <g id="xtick_186"/>
    <g id="xtick_187"/>
    <g id="xtick_188"/>
    <g id="xtick_189"/>
    <g id="xtick_190"/>
    <g id="xtick_191"/>
    <g id="xtick_192"/>
    <g id="xtick_193"/>
    <g id="xtick_194"/>
    <g id="xtick_195"/>
    <g id="xtick_196"/>
    <g id="xtick_197"/>
    <g id="xtick_198"/>
    <g id="xtick_199"/>
    <g id="xtick_200"/>
    <g id="text_1">
     <!-- Category -->
     <g transform="translate(432.344375 418.718437) scale(0.1 -0.1)">
      <defs>
       <path id="DejaVuSans-43" d="M 4122 4306 
L 4122 3641 
Q 3803 3938 3442 4084 
Q 3081 4231 2675 4231 
Q 1875 4231 1450 3742 
Q 1025 3253 1025 2328 
Q 1025 1406 1450 917 
Q 1875 428 2675 428 
Q 3081 428 3442 575 
Q 3803 722 4122 1019 
L 4122 359 
Q 3791 134 3420 21 
Q 3050 -91 2638 -91 
Q 1578 -91 968 557 
Q 359 1206 359 2328 
Q 359 3453 968 4101 
Q 1578 4750 2638 4750 
Q 3056 4750 3426 4639 
Q 3797 4528 4122 4306 
z
" transform="scale(0.015625)"/>
       <path id="DejaVuSans-61" d="M 2194 1759 
Q 1497 1759 1228 1600 
Q 959 1441 959 1056 
Q 959 750 1161 570 
Q 1363 391 1709 391 
Q 2188 391 2477 730 
Q 2766 1069 2766 1631 
L 2766 1759 
L 2194 1759 
z
M 3341 1997 
L 3341 0 
L 2766 0 
L 2766 531 
Q 2569 213 2275 61 
Q 1981 -91 1556 -91 
Q 1019 -91 701 211 
Q 384 513 384 1019 
Q 384 1609 779 1909 
Q 1175 2209 1959 2209 
L 2766 2209 
L 2766 2266 
Q 2766 2663 2505 2880 
Q 2244 3097 1772 3097 
Q 1472 3097 1187 3025 
Q 903 2953 641 2809 
L 641 3341 
Q 956 3463 1253 3523 
Q 1550 3584 1831 3584 
Q 2591 3584 2966 3190 
Q 3341 2797 3341 1997 
z
" transform="scale(0.015625)"/>
       <path id="DejaVuSans-74" d="M 1172 4494 
L 1172 3500 
L 2356 3500 
L 2356 3053 
L 1172 3053 
L 1172 1153 
Q 1172 725 1289 603 
Q 1406 481 1766 481 
L 2356 481 
L 2356 0 
L 1766 0 
Q 1100 0 847 248 
Q 594 497 594 1153 
L 594 3053 
L 172 3053 
L 172 3500 
L 594 3500 
L 594 4494 
L 1172 4494 
z
" transform="scale(0.015625)"/>
       <path id="DejaVuSans-65" d="M 3597 1894 
L 3597 1613 
L 953 1613 
Q 991 1019 1311 708 
Q 1631 397 2203 397 
Q 2534 397 2845 478 
Q 3156 559 3463 722 
L 3463 178 
Q 3153 47 2828 -22 
Q 2503 -91 2169 -91 
Q 1331 -91 842 396 
Q 353 884 353 1716 
Q 353 2575 817 3079 
Q 1281 3584 2069 3584 
Q 2775 3584 3186 3129 
Q 3597 2675 3597 1894 
z
M 3022 2063 
Q 3016 2534 2758 2815 
Q 2500 3097 2075 3097 
Q 1594 3097 1305 2825 
Q 1016 2553 972 2059 
L 3022 2063 
z
" transform="scale(0.015625)"/>
       <path id="DejaVuSans-67" d="M 2906 1791 
Q 2906 2416 2648 2759 
Q 2391 3103 1925 3103 
Q 1463 3103 1205 2759 
Q 947 2416 947 1791 
Q 947 1169 1205 825 
Q 1463 481 1925 481 
Q 2391 481 2648 825 
Q 2906 1169 2906 1791 
z
M 3481 434 
Q 3481 -459 3084 -895 
Q 2688 -1331 1869 -1331 
Q 1566 -1331 1297 -1286 
Q 1028 -1241 775 -1147 
L 775 -588 
Q 1028 -725 1275 -790 
Q 1522 -856 1778 -856 
Q 2344 -856 2625 -561 
Q 2906 -266 2906 331 
L 2906 616 
Q 2728 306 2450 153 
Q 2172 0 1784 0 
Q 1141 0 747 490 
Q 353 981 353 1791 
Q 353 2603 747 3093 
Q 1141 3584 1784 3584 
Q 2172 3584 2450 3431 
Q 2728 3278 2906 2969 
L 2906 3500 
L 3481 3500 
L 3481 434 
z
" transform="scale(0.015625)"/>
       <path id="DejaVuSans-6f" d="M 1959 3097 
Q 1497 3097 1228 2736 
Q 959 2375 959 1747 
Q 959 1119 1226 758 
Q 1494 397 1959 397 
Q 2419 397 2687 759 
Q 2956 1122 2956 1747 
Q 2956 2369 2687 2733 
Q 2419 3097 1959 3097 
z
M 1959 3584 
Q 2709 3584 3137 3096 
Q 3566 2609 3566 1747 
Q 3566 888 3137 398 
Q 2709 -91 1959 -91 
Q 1206 -91 779 398 
Q 353 888 353 1747 
Q 353 2609 779 3096 
Q 1206 3584 1959 3584 
z
" transform="scale(0.015625)"/>
       <path id="DejaVuSans-72" d="M 2631 2963 
Q 2534 3019 2420 3045 
Q 2306 3072 2169 3072 
Q 1681 3072 1420 2755 
Q 1159 2438 1159 1844 
L 1159 0 
L 581 0 
L 581 3500 
L 1159 3500 
L 1159 2956 
Q 1341 3275 1631 3429 
Q 1922 3584 2338 3584 
Q 2397 3584 2469 3576 
Q 2541 3569 2628 3553 
L 2631 2963 
z
" transform="scale(0.015625)"/>
       <path id="DejaVuSans-79" d="M 2059 -325 
Q 1816 -950 1584 -1140 
Q 1353 -1331 966 -1331 
L 506 -1331 
L 506 -850 
L 844 -850 
Q 1081 -850 1212 -737 
Q 1344 -625 1503 -206 
L 1606 56 
L 191 3500 
L 800 3500 
L 1894 763 
L 2988 3500 
L 3597 3500 
L 2059 -325 
z
" transform="scale(0.015625)"/>
      </defs>
      <use xlink:href="#DejaVuSans-43"/>
      <use xlink:href="#DejaVuSans-61" transform="translate(69.824219 0)"/>
      <use xlink:href="#DejaVuSans-74" transform="translate(131.103516 0)"/>
      <use xlink:href="#DejaVuSans-65" transform="translate(170.3125 0)"/>
      <use xlink:href="#DejaVuSans-67" transform="translate(231.835938 0)"/>
      <use xlink:href="#DejaVuSans-6f" transform="translate(295.3125 0)"/>
      <use xlink:href="#DejaVuSans-72" transform="translate(356.494141 0)"/>
      <use xlink:href="#DejaVuSans-79" transform="translate(397.607422 0)"/>
     </g>
    </g>
   </g>
   <g id="matplotlib.axis_2">
    <g id="ytick_1">
     <g id="line2d_1">
      <defs>
       <path id="m3abea546a4" d="M 0 0 
L -3.5 0 
" style="stroke: #000000; stroke-width: 0.8"/>
      </defs>
      <g>
       <use xlink:href="#m3abea546a4" x="57.17" y="407.12" style="stroke: #000000; stroke-width: 0.8"/>
      </g>
     </g>
     <g id="text_2">
      <!-- 0 -->
      <g transform="translate(43.8075 410.919219) scale(0.1 -0.1)">
       <defs>
        <path id="DejaVuSans-30" d="M 2034 4250 
Q 1547 4250 1301 3770 
Q 1056 3291 1056 2328 
Q 1056 1369 1301 889 
Q 1547 409 2034 409 
Q 2525 409 2770 889 
Q 3016 1369 3016 2328 
Q 3016 3291 2770 3770 
Q 2525 4250 2034 4250 
z
M 2034 4750 
Q 2819 4750 3233 4129 
Q 3647 3509 3647 2328 
Q 3647 1150 3233 529 
Q 2819 -91 2034 -91 
Q 1250 -91 836 529 
Q 422 1150 422 2328 
Q 422 3509 836 4129 
Q 1250 4750 2034 4750 
z
" transform="scale(0.015625)"/>
       </defs>
       <use xlink:href="#DejaVuSans-30"/>
      </g>
     </g>
    </g>
    <g id="ytick_2">
     <g id="line2d_2">
      <g>
       <use xlink:href="#m3abea546a4" x="57.17" y="362.784381" style="stroke: #000000; stroke-width: 0.8"/>
      </g>
     </g>
     <g id="text_3">
      <!-- 500 -->
      <g transform="translate(31.0825 366.5836) scale(0.1 -0.1)">
       <defs>
        <path id="DejaVuSans-35" d="M 691 4666 
L 3169 4666 
L 3169 4134 
L 1269 4134 
L 1269 2991 
Q 1406 3038 1543 3061 
Q 1681 3084 1819 3084 
Q 2600 3084 3056 2656 
Q 3513 2228 3513 1497 
Q 3513 744 3044 326 
Q 2575 -91 1722 -91 
Q 1428 -91 1123 -41 
Q 819 9 494 109 
L 494 744 
Q 775 591 1075 516 
Q 1375 441 1709 441 
Q 2250 441 2565 725 
Q 2881 1009 2881 1497 
Q 2881 1984 2565 2268 
Q 2250 2553 1709 2553 
Q 1456 2553 1204 2497 
Q 953 2441 691 2322 
L 691 4666 
z
" transform="scale(0.015625)"/>
       </defs>
       <use xlink:href="#DejaVuSans-35"/>
       <use xlink:href="#DejaVuSans-30" transform="translate(63.623047 0)"/>
       <use xlink:href="#DejaVuSans-30" transform="translate(127.246094 0)"/>
      </g>
     </g>
    </g>
    <g id="ytick_3">
     <g id="line2d_3">
      <g>
       <use xlink:href="#m3abea546a4" x="57.17" y="318.448763" style="stroke: #000000; stroke-width: 0.8"/>
      </g>
     </g>
     <g id="text_4">
      <!-- 1000 -->
      <g transform="translate(24.72 322.247981) scale(0.1 -0.1)">
       <defs>
        <path id="DejaVuSans-31" d="M 794 531 
L 1825 531 
L 1825 4091 
L 703 3866 
L 703 4441 
L 1819 4666 
L 2450 4666 
L 2450 531 
L 3481 531 
L 3481 0 
L 794 0 
L 794 531 
z
" transform="scale(0.015625)"/>
       </defs>
       <use xlink:href="#DejaVuSans-31"/>
       <use xlink:href="#DejaVuSans-30" transform="translate(63.623047 0)"/>
       <use xlink:href="#DejaVuSans-30" transform="translate(127.246094 0)"/>
       <use xlink:href="#DejaVuSans-30" transform="translate(190.869141 0)"/>
      </g>
     </g>
    </g>
    <g id="ytick_4">
     <g id="line2d_4">
      <g>
       <use xlink:href="#m3abea546a4" x="57.17" y="274.113144" style="stroke: #000000; stroke-width: 0.8"/>
      </g>
     </g>
     <g id="text_5">
      <!-- 1500 -->
      <g transform="translate(24.72 277.912363) scale(0.1 -0.1)">
       <use xlink:href="#DejaVuSans-31"/>
       <use xlink:href="#DejaVuSans-35" transform="translate(63.623047 0)"/>
       <use xlink:href="#DejaVuSans-30" transform="translate(127.246094 0)"/>
       <use xlink:href="#DejaVuSans-30" transform="translate(190.869141 0)"/>
      </g>
     </g>
    </g>
    <g id="ytick_5">
     <g id="line2d_5">
      <g>
       <use xlink:href="#m3abea546a4" x="57.17" y="229.777525" style="stroke: #000000; stroke-width: 0.8"/>
      </g>
     </g>
     <g id="text_6">
      <!-- 2000 -->
      <g transform="translate(24.72 233.576744) scale(0.1 -0.1)">
       <defs>
        <path id="DejaVuSans-32" d="M 1228 531 
L 3431 531 
L 3431 0 
L 469 0 
L 469 531 
Q 828 903 1448 1529 
Q 2069 2156 2228 2338 
Q 2531 2678 2651 2914 
Q 2772 3150 2772 3378 
Q 2772 3750 2511 3984 
Q 2250 4219 1831 4219 
Q 1534 4219 1204 4116 
Q 875 4013 500 3803 
L 500 4441 
Q 881 4594 1212 4672 
Q 1544 4750 1819 4750 
Q 2544 4750 2975 4387 
Q 3406 4025 3406 3419 
Q 3406 3131 3298 2873 
Q 3191 2616 2906 2266 
Q 2828 2175 2409 1742 
Q 1991 1309 1228 531 
z
" transform="scale(0.015625)"/>
       </defs>
       <use xlink:href="#DejaVuSans-32"/>
       <use xlink:href="#DejaVuSans-30" transform="translate(63.623047 0)"/>
       <use xlink:href="#DejaVuSans-30" transform="translate(127.246094 0)"/>
       <use xlink:href="#DejaVuSans-30" transform="translate(190.869141 0)"/>
      </g>
     </g>
    </g>
    <g id="ytick_6">
     <g id="line2d_6">
      <g>
       <use xlink:href="#m3abea546a4" x="57.17" y="185.441907" style="stroke: #000000; stroke-width: 0.8"/>
      </g>
     </g>
     <g id="text_7">
      <!-- 2500 -->
      <g transform="translate(24.72 189.241125) scale(0.1 -0.1)">
       <use xlink:href="#DejaVuSans-32"/>
       <use xlink:href="#DejaVuSans-35" transform="translate(63.623047 0)"/>
       <use xlink:href="#DejaVuSans-30" transform="translate(127.246094 0)"/>
       <use xlink:href="#DejaVuSans-30" transform="translate(190.869141 0)"/>
      </g>
     </g>
    </g>
    <g id="ytick_7">
     <g id="line2d_7">
      <g>
       <use xlink:href="#m3abea546a4" x="57.17" y="141.106288" style="stroke: #000000; stroke-width: 0.8"/>
      </g>
     </g>
     <g id="text_8">
      <!-- 3000 -->
      <g transform="translate(24.72 144.905507) scale(0.1 -0.1)">
       <defs>
        <path id="DejaVuSans-33" d="M 2597 2516 
Q 3050 2419 3304 2112 
Q 3559 1806 3559 1356 
Q 3559 666 3084 287 
Q 2609 -91 1734 -91 
Q 1441 -91 1130 -33 
Q 819 25 488 141 
L 488 750 
Q 750 597 1062 519 
Q 1375 441 1716 441 
Q 2309 441 2620 675 
Q 2931 909 2931 1356 
Q 2931 1769 2642 2001 
Q 2353 2234 1838 2234 
L 1294 2234 
L 1294 2753 
L 1863 2753 
Q 2328 2753 2575 2939 
Q 2822 3125 2822 3475 
Q 2822 3834 2567 4026 
Q 2313 4219 1838 4219 
Q 1578 4219 1281 4162 
Q 984 4106 628 3988 
L 628 4550 
Q 988 4650 1302 4700 
Q 1616 4750 1894 4750 
Q 2613 4750 3031 4423 
Q 3450 4097 3450 3541 
Q 3450 3153 3228 2886 
Q 3006 2619 2597 2516 
z
" transform="scale(0.015625)"/>
       </defs>
       <use xlink:href="#DejaVuSans-33"/>
       <use xlink:href="#DejaVuSans-30" transform="translate(63.623047 0)"/>
       <use xlink:href="#DejaVuSans-30" transform="translate(127.246094 0)"/>
       <use xlink:href="#DejaVuSans-30" transform="translate(190.869141 0)"/>
      </g>
     </g>
    </g>
    <g id="ytick_8">
     <g id="line2d_8">
      <g>
       <use xlink:href="#m3abea546a4" x="57.17" y="96.770669" style="stroke: #000000; stroke-width: 0.8"/>
      </g>
     </g>
     <g id="text_9">
      <!-- 3500 -->
      <g transform="translate(24.72 100.569888) scale(0.1 -0.1)">
       <use xlink:href="#DejaVuSans-33"/>
       <use xlink:href="#DejaVuSans-35" transform="translate(63.623047 0)"/>
       <use xlink:href="#DejaVuSans-30" transform="translate(127.246094 0)"/>
       <use xlink:href="#DejaVuSans-30" transform="translate(190.869141 0)"/>
      </g>
     </g>
    </g>
    <g id="ytick_9">
     <g id="line2d_9">
      <g>
       <use xlink:href="#m3abea546a4" x="57.17" y="52.435051" style="stroke: #000000; stroke-width: 0.8"/>
      </g>
     </g>
     <g id="text_10">
      <!-- 4000 -->
      <g transform="translate(24.72 56.234269) scale(0.1 -0.1)">
       <defs>
        <path id="DejaVuSans-34" d="M 2419 4116 
L 825 1625 
L 2419 1625 
L 2419 4116 
z
M 2253 4666 
L 3047 4666 
L 3047 1625 
L 3713 1625 
L 3713 1100 
L 3047 1100 
L 3047 0 
L 2419 0 
L 2419 1100 
L 313 1100 
L 313 1709 
L 2253 4666 
z
" transform="scale(0.015625)"/>
       </defs>
       <use xlink:href="#DejaVuSans-34"/>
       <use xlink:href="#DejaVuSans-30" transform="translate(63.623047 0)"/>
       <use xlink:href="#DejaVuSans-30" transform="translate(127.246094 0)"/>
       <use xlink:href="#DejaVuSans-30" transform="translate(190.869141 0)"/>
      </g>
     </g>
    </g>
    <g id="text_11">
     <!-- Number of Businesses -->
     <g transform="translate(18.640312 272.8125) rotate(-90) scale(0.1 -0.1)">
      <defs>
       <path id="DejaVuSans-4e" d="M 628 4666 
L 1478 4666 
L 3547 763 
L 3547 4666 
L 4159 4666 
L 4159 0 
L 3309 0 
L 1241 3903 
L 1241 0 
L 628 0 
L 628 4666 
z
" transform="scale(0.015625)"/>
       <path id="DejaVuSans-75" d="M 544 1381 
L 544 3500 
L 1119 3500 
L 1119 1403 
Q 1119 906 1312 657 
Q 1506 409 1894 409 
Q 2359 409 2629 706 
Q 2900 1003 2900 1516 
L 2900 3500 
L 3475 3500 
L 3475 0 
L 2900 0 
L 2900 538 
Q 2691 219 2414 64 
Q 2138 -91 1772 -91 
Q 1169 -91 856 284 
Q 544 659 544 1381 
z
M 1991 3584 
L 1991 3584 
z
" transform="scale(0.015625)"/>
       <path id="DejaVuSans-6d" d="M 3328 2828 
Q 3544 3216 3844 3400 
Q 4144 3584 4550 3584 
Q 5097 3584 5394 3201 
Q 5691 2819 5691 2113 
L 5691 0 
L 5113 0 
L 5113 2094 
Q 5113 2597 4934 2840 
Q 4756 3084 4391 3084 
Q 3944 3084 3684 2787 
Q 3425 2491 3425 1978 
L 3425 0 
L 2847 0 
L 2847 2094 
Q 2847 2600 2669 2842 
Q 2491 3084 2119 3084 
Q 1678 3084 1418 2786 
Q 1159 2488 1159 1978 
L 1159 0 
L 581 0 
L 581 3500 
L 1159 3500 
L 1159 2956 
Q 1356 3278 1631 3431 
Q 1906 3584 2284 3584 
Q 2666 3584 2933 3390 
Q 3200 3197 3328 2828 
z
" transform="scale(0.015625)"/>
       <path id="DejaVuSans-62" d="M 3116 1747 
Q 3116 2381 2855 2742 
Q 2594 3103 2138 3103 
Q 1681 3103 1420 2742 
Q 1159 2381 1159 1747 
Q 1159 1113 1420 752 
Q 1681 391 2138 391 
Q 2594 391 2855 752 
Q 3116 1113 3116 1747 
z
M 1159 2969 
Q 1341 3281 1617 3432 
Q 1894 3584 2278 3584 
Q 2916 3584 3314 3078 
Q 3713 2572 3713 1747 
Q 3713 922 3314 415 
Q 2916 -91 2278 -91 
Q 1894 -91 1617 61 
Q 1341 213 1159 525 
L 1159 0 
L 581 0 
L 581 4863 
L 1159 4863 
L 1159 2969 
z
" transform="scale(0.015625)"/>
       <path id="DejaVuSans-20" transform="scale(0.015625)"/>
       <path id="DejaVuSans-66" d="M 2375 4863 
L 2375 4384 
L 1825 4384 
Q 1516 4384 1395 4259 
Q 1275 4134 1275 3809 
L 1275 3500 
L 2222 3500 
L 2222 3053 
L 1275 3053 
L 1275 0 
L 697 0 
L 697 3053 
L 147 3053 
L 147 3500 
L 697 3500 
L 697 3744 
Q 697 4328 969 4595 
Q 1241 4863 1831 4863 
L 2375 4863 
z
" transform="scale(0.015625)"/>
       <path id="DejaVuSans-42" d="M 1259 2228 
L 1259 519 
L 2272 519 
Q 2781 519 3026 730 
Q 3272 941 3272 1375 
Q 3272 1813 3026 2020 
Q 2781 2228 2272 2228 
L 1259 2228 
z
M 1259 4147 
L 1259 2741 
L 2194 2741 
Q 2656 2741 2882 2914 
Q 3109 3088 3109 3444 
Q 3109 3797 2882 3972 
Q 2656 4147 2194 4147 
L 1259 4147 
z
M 628 4666 
L 2241 4666 
Q 2963 4666 3353 4366 
Q 3744 4066 3744 3513 
Q 3744 3084 3544 2831 
Q 3344 2578 2956 2516 
Q 3422 2416 3680 2098 
Q 3938 1781 3938 1306 
Q 3938 681 3513 340 
Q 3088 0 2303 0 
L 628 0 
L 628 4666 
z
" transform="scale(0.015625)"/>
       <path id="DejaVuSans-73" d="M 2834 3397 
L 2834 2853 
Q 2591 2978 2328 3040 
Q 2066 3103 1784 3103 
Q 1356 3103 1142 2972 
Q 928 2841 928 2578 
Q 928 2378 1081 2264 
Q 1234 2150 1697 2047 
L 1894 2003 
Q 2506 1872 2764 1633 
Q 3022 1394 3022 966 
Q 3022 478 2636 193 
Q 2250 -91 1575 -91 
Q 1294 -91 989 -36 
Q 684 19 347 128 
L 347 722 
Q 666 556 975 473 
Q 1284 391 1588 391 
Q 1994 391 2212 530 
Q 2431 669 2431 922 
Q 2431 1156 2273 1281 
Q 2116 1406 1581 1522 
L 1381 1569 
Q 847 1681 609 1914 
Q 372 2147 372 2553 
Q 372 3047 722 3315 
Q 1072 3584 1716 3584 
Q 2034 3584 2315 3537 
Q 2597 3491 2834 3397 
z
" transform="scale(0.015625)"/>
       <path id="DejaVuSans-69" d="M 603 3500 
L 1178 3500 
L 1178 0 
L 603 0 
L 603 3500 
z
M 603 4863 
L 1178 4863 
L 1178 4134 
L 603 4134 
L 603 4863 
z
" transform="scale(0.015625)"/>
       <path id="DejaVuSans-6e" d="M 3513 2113 
L 3513 0 
L 2938 0 
L 2938 2094 
Q 2938 2591 2744 2837 
Q 2550 3084 2163 3084 
Q 1697 3084 1428 2787 
Q 1159 2491 1159 1978 
L 1159 0 
L 581 0 
L 581 3500 
L 1159 3500 
L 1159 2956 
Q 1366 3272 1645 3428 
Q 1925 3584 2291 3584 
Q 2894 3584 3203 3211 
Q 3513 2838 3513 2113 
z
" transform="scale(0.015625)"/>
      </defs>
      <use xlink:href="#DejaVuSans-4e"/>
      <use xlink:href="#DejaVuSans-75" transform="translate(74.804688 0)"/>
      <use xlink:href="#DejaVuSans-6d" transform="translate(138.183594 0)"/>
      <use xlink:href="#DejaVuSans-62" transform="translate(235.595703 0)"/>
      <use xlink:href="#DejaVuSans-65" transform="translate(299.072266 0)"/>
      <use xlink:href="#DejaVuSans-72" transform="translate(360.595703 0)"/>
      <use xlink:href="#DejaVuSans-20" transform="translate(401.708984 0)"/>
      <use xlink:href="#DejaVuSans-6f" transform="translate(433.496094 0)"/>
      <use xlink:href="#DejaVuSans-66" transform="translate(494.677734 0)"/>
      <use xlink:href="#DejaVuSans-20" transform="translate(529.882812 0)"/>
      <use xlink:href="#DejaVuSans-42" transform="translate(561.669922 0)"/>
      <use xlink:href="#DejaVuSans-75" transform="translate(630.273438 0)"/>
      <use xlink:href="#DejaVuSans-73" transform="translate(693.652344 0)"/>
      <use xlink:href="#DejaVuSans-69" transform="translate(745.751953 0)"/>
      <use xlink:href="#DejaVuSans-6e" transform="translate(773.535156 0)"/>
      <use xlink:href="#DejaVuSans-65" transform="translate(836.914062 0)"/>
      <use xlink:href="#DejaVuSans-73" transform="translate(898.4375 0)"/>
      <use xlink:href="#DejaVuSans-73" transform="translate(950.537109 0)"/>
      <use xlink:href="#DejaVuSans-65" transform="translate(1002.636719 0)"/>
      <use xlink:href="#DejaVuSans-73" transform="translate(1064.160156 0)"/>
     </g>
    </g>
   </g>
   <g id="patch_203">
    <path d="M 57.17 407.12 
L 57.17 26.88 
" style="fill: none; stroke: #000000; stroke-width: 0.8; stroke-linejoin: miter; stroke-linecap: square"/>
   </g>
   <g id="patch_204">
    <path d="M 853.2 407.12 
L 853.2 26.88 
" style="fill: none; stroke: #000000; stroke-width: 0.8; stroke-linejoin: miter; stroke-linecap: square"/>
   </g>
   <g id="patch_205">
    <path d="M 57.17 407.12 
L 853.2 407.12 
" style="fill: none; stroke: #000000; stroke-width: 0.8; stroke-linejoin: miter; stroke-linecap: square"/>
   </g>
   <g id="patch_206">
    <path d="M 57.17 26.88 
L 853.2 26.88 
" style="fill: none; stroke: #000000; stroke-width: 0.8; stroke-linejoin: miter; stroke-linecap: square"/>
   </g>
   <g id="text_12">
    <!-- Long tail of the Simple Categories -->
    <g transform="translate(353.306875 20.88) scale(0.12 -0.12)">
     <defs>
      <path id="DejaVuSans-4c" d="M 628 4666 
L 1259 4666 
L 1259 531 
L 3531 531 
L 3531 0 
L 628 0 
L 628 4666 
z
" transform="scale(0.015625)"/>
      <path id="DejaVuSans-6c" d="M 603 4863 
L 1178 4863 
L 1178 0 
L 603 0 
L 603 4863 
z
" transform="scale(0.015625)"/>
      <path id="DejaVuSans-68" d="M 3513 2113 
L 3513 0 
L 2938 0 
L 2938 2094 
Q 2938 2591 2744 2837 
Q 2550 3084 2163 3084 
Q 1697 3084 1428 2787 
Q 1159 2491 1159 1978 
L 1159 0 
L 581 0 
L 581 4863 
L 1159 4863 
L 1159 2956 
Q 1366 3272 1645 3428 
Q 1925 3584 2291 3584 
Q 2894 3584 3203 3211 
Q 3513 2838 3513 2113 
z
" transform="scale(0.015625)"/>
      <path id="DejaVuSans-53" d="M 3425 4513 
L 3425 3897 
Q 3066 4069 2747 4153 
Q 2428 4238 2131 4238 
Q 1616 4238 1336 4038 
Q 1056 3838 1056 3469 
Q 1056 3159 1242 3001 
Q 1428 2844 1947 2747 
L 2328 2669 
Q 3034 2534 3370 2195 
Q 3706 1856 3706 1288 
Q 3706 609 3251 259 
Q 2797 -91 1919 -91 
Q 1588 -91 1214 -16 
Q 841 59 441 206 
L 441 856 
Q 825 641 1194 531 
Q 1563 422 1919 422 
Q 2459 422 2753 634 
Q 3047 847 3047 1241 
Q 3047 1584 2836 1778 
Q 2625 1972 2144 2069 
L 1759 2144 
Q 1053 2284 737 2584 
Q 422 2884 422 3419 
Q 422 4038 858 4394 
Q 1294 4750 2059 4750 
Q 2388 4750 2728 4690 
Q 3069 4631 3425 4513 
z
" transform="scale(0.015625)"/>
      <path id="DejaVuSans-70" d="M 1159 525 
L 1159 -1331 
L 581 -1331 
L 581 3500 
L 1159 3500 
L 1159 2969 
Q 1341 3281 1617 3432 
Q 1894 3584 2278 3584 
Q 2916 3584 3314 3078 
Q 3713 2572 3713 1747 
Q 3713 922 3314 415 
Q 2916 -91 2278 -91 
Q 1894 -91 1617 61 
Q 1341 213 1159 525 
z
M 3116 1747 
Q 3116 2381 2855 2742 
Q 2594 3103 2138 3103 
Q 1681 3103 1420 2742 
Q 1159 2381 1159 1747 
Q 1159 1113 1420 752 
Q 1681 391 2138 391 
Q 2594 391 2855 752 
Q 3116 1113 3116 1747 
z
" transform="scale(0.015625)"/>
     </defs>
     <use xlink:href="#DejaVuSans-4c"/>
     <use xlink:href="#DejaVuSans-6f" transform="translate(53.962891 0)"/>
     <use xlink:href="#DejaVuSans-6e" transform="translate(115.144531 0)"/>
     <use xlink:href="#DejaVuSans-67" transform="translate(178.523438 0)"/>
     <use xlink:href="#DejaVuSans-20" transform="translate(242 0)"/>
     <use xlink:href="#DejaVuSans-74" transform="translate(273.787109 0)"/>
     <use xlink:href="#DejaVuSans-61" transform="translate(312.996094 0)"/>
     <use xlink:href="#DejaVuSans-69" transform="translate(374.275391 0)"/>
     <use xlink:href="#DejaVuSans-6c" transform="translate(402.058594 0)"/>
     <use xlink:href="#DejaVuSans-20" transform="translate(429.841797 0)"/>
     <use xlink:href="#DejaVuSans-6f" transform="translate(461.628906 0)"/>
     <use xlink:href="#DejaVuSans-66" transform="translate(522.810547 0)"/>
     <use xlink:href="#DejaVuSans-20" transform="translate(558.015625 0)"/>
     <use xlink:href="#DejaVuSans-74" transform="translate(589.802734 0)"/>
     <use xlink:href="#DejaVuSans-68" transform="translate(629.011719 0)"/>
     <use xlink:href="#DejaVuSans-65" transform="translate(692.390625 0)"/>
     <use xlink:href="#DejaVuSans-20" transform="translate(753.914062 0)"/>
     <use xlink:href="#DejaVuSans-53" transform="translate(785.701172 0)"/>
     <use xlink:href="#DejaVuSans-69" transform="translate(849.177734 0)"/>
     <use xlink:href="#DejaVuSans-6d" transform="translate(876.960938 0)"/>
     <use xlink:href="#DejaVuSans-70" transform="translate(974.373047 0)"/>
     <use xlink:href="#DejaVuSans-6c" transform="translate(1037.849609 0)"/>
     <use xlink:href="#DejaVuSans-65" transform="translate(1065.632812 0)"/>
     <use xlink:href="#DejaVuSans-20" transform="translate(1127.15625 0)"/>
     <use xlink:href="#DejaVuSans-43" transform="translate(1158.943359 0)"/>
     <use xlink:href="#DejaVuSans-61" transform="translate(1228.767578 0)"/>
     <use xlink:href="#DejaVuSans-74" transform="translate(1290.046875 0)"/>
     <use xlink:href="#DejaVuSans-65" transform="translate(1329.255859 0)"/>
     <use xlink:href="#DejaVuSans-67" transform="translate(1390.779297 0)"/>
     <use xlink:href="#DejaVuSans-6f" transform="translate(1454.255859 0)"/>
     <use xlink:href="#DejaVuSans-72" transform="translate(1515.4375 0)"/>
     <use xlink:href="#DejaVuSans-69" transform="translate(1556.550781 0)"/>
     <use xlink:href="#DejaVuSans-65" transform="translate(1584.333984 0)"/>
     <use xlink:href="#DejaVuSans-73" transform="translate(1645.857422 0)"/>
    </g>
   </g>
  </g>
 </g>
 <defs>
  <clipPath id="pc174a5bfea">
   <rect x="57.17" y="26.88" width="796.03" height="380.24"/>
  </clipPath>
 </defs>
</svg>
