<?xml version="1.0" encoding="utf-8" standalone="no"?>
<!DOCTYPE svg PUBLIC "-//W3C//DTD SVG 1.1//EN"
  "http://www.w3.org/Graphics/SVG/1.1/DTD/svg11.dtd">
<svg xmlns:xlink="http://www.w3.org/1999/xlink" width="864pt" height="432pt" viewBox="0 0 864 432" xmlns="http://www.w3.org/2000/svg" version="1.1">
 <metadata>
  <rdf:RDF xmlns:dc="http://purl.org/dc/elements/1.1/" xmlns:cc="http://creativecommons.org/ns#" xmlns:rdf="http://www.w3.org/1999/02/22-rdf-syntax-ns#">
   <cc:Work>
    <dc:type rdf:resource="http://purl.org/dc/dcmitype/StillImage"/>
    <dc:date>2025-12-01T10:07:58.719486</dc:date>
    <dc:format>image/svg+xml</dc:format>
    <dc:creator>
     <cc:Agent>
      <dc:title>Matplotlib v3.10.7, https://matplotlib.org/</dc:title>
     </cc:Agent>
    </dc:creator>
   </cc:Work>
  </rdf:RDF>
 </metadata>
 <defs>
  <style type="text/css">*{stroke-linejoin: round; stroke-linecap: butt}</style>
 </defs>
 <g id="figure_1">
  <g id="patch_1">
   <path d="M 0 432 
L 864 432 
L 864 0 
L 0 0 
z
" style="fill: #ffffff"/>
  </g>
  <g id="axes_1">
   <g id="patch_2">
    <path d="M 57.44 407.12 
L 853.2 407.12 
L 853.2 25.44 
L 57.44 25.44 
z
" style="fill: #ffffff"/>
   </g>
   <g id="patch_3">
    <path d="M 58.4347 407.12 
L 60.4241 407.12 
L 60.4241 407.030993 
L 58.4347 407.030993 
z
" clip-path="url(#p42d268de62)" style="fill: #1f77b4"/>
   </g>
   <g id="patch_4">
    <path d="M 62.4135 407.12 
L 64.4029 407.12 
L 64.4029 407.030993 
L 62.4135 407.030993 
z
" clip-path="url(#p42d268de62)" style="fill: #1f77b4"/>
   </g>
   <g id="patch_5">
    <path d="M 66.3923 407.12 
L 68.3817 407.12 
L 68.3817 407.030993 
L 66.3923 407.030993 
z
" clip-path="url(#p42d268de62)" style="fill: #1f77b4"/>
   </g>
   <g id="patch_6">
    <path d="M 70.3711 407.12 
L 72.3605 407.12 
L 72.3605 407.030993 
L 70.3711 407.030993 
z
" clip-path="url(#p42d268de62)" style="fill: #1f77b4"/>
   </g>
   <g id="patch_7">
    <path d="M 74.3499 407.12 
L 76.3393 407.12 
L 76.3393 407.030993 
L 74.3499 407.030993 
z
" clip-path="url(#p42d268de62)" style="fill: #1f77b4"/>
   </g>
   <g id="patch_8">
    <path d="M 78.3287 407.12 
L 80.3181 407.12 
L 80.3181 407.030993 
L 78.3287 407.030993 
z
" clip-path="url(#p42d268de62)" style="fill: #1f77b4"/>
   </g>
   <g id="patch_9">
    <path d="M 82.3075 407.12 
L 84.2969 407.12 
L 84.2969 407.030993 
L 82.3075 407.030993 
z
" clip-path="url(#p42d268de62)" style="fill: #1f77b4"/>
   </g>
   <g id="patch_10">
    <path d="M 86.2863 407.12 
L 88.2757 407.12 
L 88.2757 406.941986 
L 86.2863 406.941986 
z
" clip-path="url(#p42d268de62)" style="fill: #1f77b4"/>
   </g>
   <g id="patch_11">
    <path d="M 90.2651 407.12 
L 92.2545 407.12 
L 92.2545 406.941986 
L 90.2651 406.941986 
z
" clip-path="url(#p42d268de62)" style="fill: #1f77b4"/>
   </g>
   <g id="patch_12">
    <path d="M 94.2439 407.12 
L 96.2333 407.12 
L 96.2333 406.941986 
L 94.2439 406.941986 
z
" clip-path="url(#p42d268de62)" style="fill: #1f77b4"/>
   </g>
   <g id="patch_13">
    <path d="M 98.2227 407.12 
L 100.2121 407.12 
L 100.2121 406.941986 
L 98.2227 406.941986 
z
" clip-path="url(#p42d268de62)" style="fill: #1f77b4"/>
   </g>
   <g id="patch_14">
    <path d="M 102.2015 407.12 
L 104.1909 407.12 
L 104.1909 406.941986 
L 102.2015 406.941986 
z
" clip-path="url(#p42d268de62)" style="fill: #1f77b4"/>
   </g>
   <g id="patch_15">
    <path d="M 106.1803 407.12 
L 108.1697 407.12 
L 108.1697 406.941986 
L 106.1803 406.941986 
z
" clip-path="url(#p42d268de62)" style="fill: #1f77b4"/>
   </g>
   <g id="patch_16">
    <path d="M 110.1591 407.12 
L 112.1485 407.12 
L 112.1485 406.852979 
L 110.1591 406.852979 
z
" clip-path="url(#p42d268de62)" style="fill: #1f77b4"/>
   </g>
   <g id="patch_17">
    <path d="M 114.1379 407.12 
L 116.1273 407.12 
L 116.1273 406.852979 
L 114.1379 406.852979 
z
" clip-path="url(#p42d268de62)" style="fill: #1f77b4"/>
   </g>
   <g id="patch_18">
    <path d="M 118.1167 407.12 
L 120.1061 407.12 
L 120.1061 406.852979 
L 118.1167 406.852979 
z
" clip-path="url(#p42d268de62)" style="fill: #1f77b4"/>
   </g>
   <g id="patch_19">
    <path d="M 122.0955 407.12 
L 124.0849 407.12 
L 124.0849 406.852979 
L 122.0955 406.852979 
z
" clip-path="url(#p42d268de62)" style="fill: #1f77b4"/>
   </g>
   <g id="patch_20">
    <path d="M 126.0743 407.12 
L 128.0637 407.12 
L 128.0637 406.852979 
L 126.0743 406.852979 
z
" clip-path="url(#p42d268de62)" style="fill: #1f77b4"/>
   </g>
   <g id="patch_21">
    <path d="M 130.0531 407.12 
L 132.0425 407.12 
L 132.0425 406.852979 
L 130.0531 406.852979 
z
" clip-path="url(#p42d268de62)" style="fill: #1f77b4"/>
   </g>
   <g id="patch_22">
    <path d="M 134.0319 407.12 
L 136.0213 407.12 
L 136.0213 406.852979 
L 134.0319 406.852979 
z
" clip-path="url(#p42d268de62)" style="fill: #1f77b4"/>
   </g>
   <g id="patch_23">
    <path d="M 138.0107 407.12 
L 140.0001 407.12 
L 140.0001 406.852979 
L 138.0107 406.852979 
z
" clip-path="url(#p42d268de62)" style="fill: #1f77b4"/>
   </g>
   <g id="patch_24">
    <path d="M 141.9895 407.12 
L 143.9789 407.12 
L 143.9789 406.763972 
L 141.9895 406.763972 
z
" clip-path="url(#p42d268de62)" style="fill: #1f77b4"/>
   </g>
   <g id="patch_25">
    <path d="M 145.9683 407.12 
L 147.9577 407.12 
L 147.9577 406.763972 
L 145.9683 406.763972 
z
" clip-path="url(#p42d268de62)" style="fill: #1f77b4"/>
   </g>
   <g id="patch_26">
    <path d="M 149.9471 407.12 
L 151.9365 407.12 
L 151.9365 406.763972 
L 149.9471 406.763972 
z
" clip-path="url(#p42d268de62)" style="fill: #1f77b4"/>
   </g>
   <g id="patch_27">
    <path d="M 153.9259 407.12 
L 155.9153 407.12 
L 155.9153 406.763972 
L 153.9259 406.763972 
z
" clip-path="url(#p42d268de62)" style="fill: #1f77b4"/>
   </g>
   <g id="patch_28">
    <path d="M 157.9047 407.12 
L 159.8941 407.12 
L 159.8941 406.763972 
L 157.9047 406.763972 
z
" clip-path="url(#p42d268de62)" style="fill: #1f77b4"/>
   </g>
   <g id="patch_29">
    <path d="M 161.8835 407.12 
L 163.8729 407.12 
L 163.8729 406.763972 
L 161.8835 406.763972 
z
" clip-path="url(#p42d268de62)" style="fill: #1f77b4"/>
   </g>
   <g id="patch_30">
    <path d="M 165.8623 407.12 
L 167.8517 407.12 
L 167.8517 406.674965 
L 165.8623 406.674965 
z
" clip-path="url(#p42d268de62)" style="fill: #1f77b4"/>
   </g>
   <g id="patch_31">
    <path d="M 169.8411 407.12 
L 171.8305 407.12 
L 171.8305 406.674965 
L 169.8411 406.674965 
z
" clip-path="url(#p42d268de62)" style="fill: #1f77b4"/>
   </g>
   <g id="patch_32">
    <path d="M 173.8199 407.12 
L 175.8093 407.12 
L 175.8093 406.674965 
L 173.8199 406.674965 
z
" clip-path="url(#p42d268de62)" style="fill: #1f77b4"/>
   </g>
   <g id="patch_33">
    <path d="M 177.7987 407.12 
L 179.7881 407.12 
L 179.7881 406.585958 
L 177.7987 406.585958 
z
" clip-path="url(#p42d268de62)" style="fill: #1f77b4"/>
   </g>
   <g id="patch_34">
    <path d="M 181.7775 407.12 
L 183.7669 407.12 
L 183.7669 406.496951 
L 181.7775 406.496951 
z
" clip-path="url(#p42d268de62)" style="fill: #1f77b4"/>
   </g>
   <g id="patch_35">
    <path d="M 185.7563 407.12 
L 187.7457 407.12 
L 187.7457 406.496951 
L 185.7563 406.496951 
z
" clip-path="url(#p42d268de62)" style="fill: #1f77b4"/>
   </g>
   <g id="patch_36">
    <path d="M 189.7351 407.12 
L 191.7245 407.12 
L 191.7245 406.496951 
L 189.7351 406.496951 
z
" clip-path="url(#p42d268de62)" style="fill: #1f77b4"/>
   </g>
   <g id="patch_37">
    <path d="M 193.7139 407.12 
L 195.7033 407.12 
L 195.7033 406.496951 
L 193.7139 406.496951 
z
" clip-path="url(#p42d268de62)" style="fill: #1f77b4"/>
   </g>
   <g id="patch_38">
    <path d="M 197.6927 407.12 
L 199.6821 407.12 
L 199.6821 406.496951 
L 197.6927 406.496951 
z
" clip-path="url(#p42d268de62)" style="fill: #1f77b4"/>
   </g>
   <g id="patch_39">
    <path d="M 201.6715 407.12 
L 203.6609 407.12 
L 203.6609 406.496951 
L 201.6715 406.496951 
z
" clip-path="url(#p42d268de62)" style="fill: #1f77b4"/>
   </g>
   <g id="patch_40">
    <path d="M 205.6503 407.12 
L 207.6397 407.12 
L 207.6397 406.407944 
L 205.6503 406.407944 
z
" clip-path="url(#p42d268de62)" style="fill: #1f77b4"/>
   </g>
   <g id="patch_41">
    <path d="M 209.6291 407.12 
L 211.6185 407.12 
L 211.6185 406.407944 
L 209.6291 406.407944 
z
" clip-path="url(#p42d268de62)" style="fill: #1f77b4"/>
   </g>
   <g id="patch_42">
    <path d="M 213.6079 407.12 
L 215.5973 407.12 
L 215.5973 406.407944 
L 213.6079 406.407944 
z
" clip-path="url(#p42d268de62)" style="fill: #1f77b4"/>
   </g>
   <g id="patch_43">
    <path d="M 217.5867 407.12 
L 219.5761 407.12 
L 219.5761 406.318937 
L 217.5867 406.318937 
z
" clip-path="url(#p42d268de62)" style="fill: #1f77b4"/>
   </g>
   <g id="patch_44">
    <path d="M 221.5655 407.12 
L 223.5549 407.12 
L 223.5549 406.318937 
L 221.5655 406.318937 
z
" clip-path="url(#p42d268de62)" style="fill: #1f77b4"/>
   </g>
   <g id="patch_45">
    <path d="M 225.5443 407.12 
L 227.5337 407.12 
L 227.5337 406.318937 
L 225.5443 406.318937 
z
" clip-path="url(#p42d268de62)" style="fill: #1f77b4"/>
   </g>
   <g id="patch_46">
    <path d="M 229.5231 407.12 
L 231.5125 407.12 
L 231.5125 406.22993 
L 229.5231 406.22993 
z
" clip-path="url(#p42d268de62)" style="fill: #1f77b4"/>
   </g>
   <g id="patch_47">
    <path d="M 233.5019 407.12 
L 235.4913 407.12 
L 235.4913 406.140923 
L 233.5019 406.140923 
z
" clip-path="url(#p42d268de62)" style="fill: #1f77b4"/>
   </g>
   <g id="patch_48">
    <path d="M 237.4807 407.12 
L 239.4701 407.12 
L 239.4701 406.140923 
L 237.4807 406.140923 
z
" clip-path="url(#p42d268de62)" style="fill: #1f77b4"/>
   </g>
   <g id="patch_49">
    <path d="M 241.4595 407.12 
L 243.4489 407.12 
L 243.4489 406.140923 
L 241.4595 406.140923 
z
" clip-path="url(#p42d268de62)" style="fill: #1f77b4"/>
   </g>
   <g id="patch_50">
    <path d="M 245.4383 407.12 
L 247.4277 407.12 
L 247.4277 406.140923 
L 245.4383 406.140923 
z
" clip-path="url(#p42d268de62)" style="fill: #1f77b4"/>
   </g>
   <g id="patch_51">
    <path d="M 249.4171 407.12 
L 251.4065 407.12 
L 251.4065 406.140923 
L 249.4171 406.140923 
z
" clip-path="url(#p42d268de62)" style="fill: #1f77b4"/>
   </g>
   <g id="patch_52">
    <path d="M 253.3959 407.12 
L 255.3853 407.12 
L 255.3853 406.051915 
L 253.3959 406.051915 
z
" clip-path="url(#p42d268de62)" style="fill: #1f77b4"/>
   </g>
   <g id="patch_53">
    <path d="M 257.3747 407.12 
L 259.3641 407.12 
L 259.3641 405.873901 
L 257.3747 405.873901 
z
" clip-path="url(#p42d268de62)" style="fill: #1f77b4"/>
   </g>
   <g id="patch_54">
    <path d="M 261.3535 407.12 
L 263.3429 407.12 
L 263.3429 405.784894 
L 261.3535 405.784894 
z
" clip-path="url(#p42d268de62)" style="fill: #1f77b4"/>
   </g>
   <g id="patch_55">
    <path d="M 265.3323 407.12 
L 267.3217 407.12 
L 267.3217 405.695887 
L 265.3323 405.695887 
z
" clip-path="url(#p42d268de62)" style="fill: #1f77b4"/>
   </g>
   <g id="patch_56">
    <path d="M 269.3111 407.12 
L 271.3005 407.12 
L 271.3005 405.695887 
L 269.3111 405.695887 
z
" clip-path="url(#p42d268de62)" style="fill: #1f77b4"/>
   </g>
   <g id="patch_57">
    <path d="M 273.2899 407.12 
L 275.2793 407.12 
L 275.2793 405.695887 
L 273.2899 405.695887 
z
" clip-path="url(#p42d268de62)" style="fill: #1f77b4"/>
   </g>
   <g id="patch_58">
    <path d="M 277.2687 407.12 
L 279.2581 407.12 
L 279.2581 405.60688 
L 277.2687 405.60688 
z
" clip-path="url(#p42d268de62)" style="fill: #1f77b4"/>
   </g>
   <g id="patch_59">
    <path d="M 281.2475 407.12 
L 283.2369 407.12 
L 283.2369 405.60688 
L 281.2475 405.60688 
z
" clip-path="url(#p42d268de62)" style="fill: #1f77b4"/>
   </g>
   <g id="patch_60">
    <path d="M 285.2263 407.12 
L 287.2157 407.12 
L 287.2157 405.517873 
L 285.2263 405.517873 
z
" clip-path="url(#p42d268de62)" style="fill: #1f77b4"/>
   </g>
   <g id="patch_61">
    <path d="M 289.2051 407.12 
L 291.1945 407.12 
L 291.1945 405.517873 
L 289.2051 405.517873 
z
" clip-path="url(#p42d268de62)" style="fill: #1f77b4"/>
   </g>
   <g id="patch_62">
    <path d="M 293.1839 407.12 
L 295.1733 407.12 
L 295.1733 405.428866 
L 293.1839 405.428866 
z
" clip-path="url(#p42d268de62)" style="fill: #1f77b4"/>
   </g>
   <g id="patch_63">
    <path d="M 297.1627 407.12 
L 299.1521 407.12 
L 299.1521 405.428866 
L 297.1627 405.428866 
z
" clip-path="url(#p42d268de62)" style="fill: #1f77b4"/>
   </g>
   <g id="patch_64">
    <path d="M 301.1415 407.12 
L 303.1309 407.12 
L 303.1309 405.428866 
L 301.1415 405.428866 
z
" clip-path="url(#p42d268de62)" style="fill: #1f77b4"/>
   </g>
   <g id="patch_65">
    <path d="M 305.1203 407.12 
L 307.1097 407.12 
L 307.1097 405.339859 
L 305.1203 405.339859 
z
" clip-path="url(#p42d268de62)" style="fill: #1f77b4"/>
   </g>
   <g id="patch_66">
    <path d="M 309.0991 407.12 
L 311.0885 407.12 
L 311.0885 405.339859 
L 309.0991 405.339859 
z
" clip-path="url(#p42d268de62)" style="fill: #1f77b4"/>
   </g>
   <g id="patch_67">
    <path d="M 313.0779 407.12 
L 315.0673 407.12 
L 315.0673 405.339859 
L 313.0779 405.339859 
z
" clip-path="url(#p42d268de62)" style="fill: #1f77b4"/>
   </g>
   <g id="patch_68">
    <path d="M 317.0567 407.12 
L 319.0461 407.12 
L 319.0461 405.339859 
L 317.0567 405.339859 
z
" clip-path="url(#p42d268de62)" style="fill: #1f77b4"/>
   </g>
   <g id="patch_69">
    <path d="M 321.0355 407.12 
L 323.0249 407.12 
L 323.0249 405.161845 
L 321.0355 405.161845 
z
" clip-path="url(#p42d268de62)" style="fill: #1f77b4"/>
   </g>
   <g id="patch_70">
    <path d="M 325.0143 407.12 
L 327.0037 407.12 
L 327.0037 405.161845 
L 325.0143 405.161845 
z
" clip-path="url(#p42d268de62)" style="fill: #1f77b4"/>
   </g>
   <g id="patch_71">
    <path d="M 328.9931 407.12 
L 330.9825 407.12 
L 330.9825 405.161845 
L 328.9931 405.161845 
z
" clip-path="url(#p42d268de62)" style="fill: #1f77b4"/>
   </g>
   <g id="patch_72">
    <path d="M 332.9719 407.12 
L 334.9613 407.12 
L 334.9613 405.072838 
L 332.9719 405.072838 
z
" clip-path="url(#p42d268de62)" style="fill: #1f77b4"/>
   </g>
   <g id="patch_73">
    <path d="M 336.9507 407.12 
L 338.9401 407.12 
L 338.9401 405.072838 
L 336.9507 405.072838 
z
" clip-path="url(#p42d268de62)" style="fill: #1f77b4"/>
   </g>
   <g id="patch_74">
    <path d="M 340.9295 407.12 
L 342.9189 407.12 
L 342.9189 404.894824 
L 340.9295 404.894824 
z
" clip-path="url(#p42d268de62)" style="fill: #1f77b4"/>
   </g>
   <g id="patch_75">
    <path d="M 344.9083 407.12 
L 346.8977 407.12 
L 346.8977 404.805817 
L 344.9083 404.805817 
z
" clip-path="url(#p42d268de62)" style="fill: #1f77b4"/>
   </g>
   <g id="patch_76">
    <path d="M 348.8871 407.12 
L 350.8765 407.12 
L 350.8765 404.805817 
L 348.8871 404.805817 
z
" clip-path="url(#p42d268de62)" style="fill: #1f77b4"/>
   </g>
   <g id="patch_77">
    <path d="M 352.8659 407.12 
L 354.8553 407.12 
L 354.8553 404.805817 
L 352.8659 404.805817 
z
" clip-path="url(#p42d268de62)" style="fill: #1f77b4"/>
   </g>
   <g id="patch_78">
    <path d="M 356.8447 407.12 
L 358.8341 407.12 
L 358.8341 404.805817 
L 356.8447 404.805817 
z
" clip-path="url(#p42d268de62)" style="fill: #1f77b4"/>
   </g>
   <g id="patch_79">
    <path d="M 360.8235 407.12 
L 362.8129 407.12 
L 362.8129 404.71681 
L 360.8235 404.71681 
z
" clip-path="url(#p42d268de62)" style="fill: #1f77b4"/>
   </g>
   <g id="patch_80">
    <path d="M 364.8023 407.12 
L 366.7917 407.12 
L 366.7917 404.538796 
L 364.8023 404.538796 
z
" clip-path="url(#p42d268de62)" style="fill: #1f77b4"/>
   </g>
   <g id="patch_81">
    <path d="M 368.7811 407.12 
L 370.7705 407.12 
L 370.7705 404.449789 
L 368.7811 404.449789 
z
" clip-path="url(#p42d268de62)" style="fill: #1f77b4"/>
   </g>
   <g id="patch_82">
    <path d="M 372.7599 407.12 
L 374.7493 407.12 
L 374.7493 404.360782 
L 372.7599 404.360782 
z
" clip-path="url(#p42d268de62)" style="fill: #1f77b4"/>
   </g>
   <g id="patch_83">
    <path d="M 376.7387 407.12 
L 378.7281 407.12 
L 378.7281 404.271775 
L 376.7387 404.271775 
z
" clip-path="url(#p42d268de62)" style="fill: #1f77b4"/>
   </g>
   <g id="patch_84">
    <path d="M 380.7175 407.12 
L 382.7069 407.12 
L 382.7069 404.271775 
L 380.7175 404.271775 
z
" clip-path="url(#p42d268de62)" style="fill: #1f77b4"/>
   </g>
   <g id="patch_85">
    <path d="M 384.6963 407.12 
L 386.6857 407.12 
L 386.6857 404.182768 
L 384.6963 404.182768 
z
" clip-path="url(#p42d268de62)" style="fill: #1f77b4"/>
   </g>
   <g id="patch_86">
    <path d="M 388.6751 407.12 
L 390.6645 407.12 
L 390.6645 404.093761 
L 388.6751 404.093761 
z
" clip-path="url(#p42d268de62)" style="fill: #1f77b4"/>
   </g>
   <g id="patch_87">
    <path d="M 392.6539 407.12 
L 394.6433 407.12 
L 394.6433 404.004754 
L 392.6539 404.004754 
z
" clip-path="url(#p42d268de62)" style="fill: #1f77b4"/>
   </g>
   <g id="patch_88">
    <path d="M 396.6327 407.12 
L 398.6221 407.12 
L 398.6221 403.915746 
L 396.6327 403.915746 
z
" clip-path="url(#p42d268de62)" style="fill: #1f77b4"/>
   </g>
   <g id="patch_89">
    <path d="M 400.6115 407.12 
L 402.6009 407.12 
L 402.6009 403.915746 
L 400.6115 403.915746 
z
" clip-path="url(#p42d268de62)" style="fill: #1f77b4"/>
   </g>
   <g id="patch_90">
    <path d="M 404.5903 407.12 
L 406.5797 407.12 
L 406.5797 403.648725 
L 404.5903 403.648725 
z
" clip-path="url(#p42d268de62)" style="fill: #1f77b4"/>
   </g>
   <g id="patch_91">
    <path d="M 408.5691 407.12 
L 410.5585 407.12 
L 410.5585 403.648725 
L 408.5691 403.648725 
z
" clip-path="url(#p42d268de62)" style="fill: #1f77b4"/>
   </g>
   <g id="patch_92">
    <path d="M 412.5479 407.12 
L 414.5373 407.12 
L 414.5373 403.470711 
L 412.5479 403.470711 
z
" clip-path="url(#p42d268de62)" style="fill: #1f77b4"/>
   </g>
   <g id="patch_93">
    <path d="M 416.5267 407.12 
L 418.5161 407.12 
L 418.5161 403.381704 
L 416.5267 403.381704 
z
" clip-path="url(#p42d268de62)" style="fill: #1f77b4"/>
   </g>
   <g id="patch_94">
    <path d="M 420.5055 407.12 
L 422.4949 407.12 
L 422.4949 403.20369 
L 420.5055 403.20369 
z
" clip-path="url(#p42d268de62)" style="fill: #1f77b4"/>
   </g>
   <g id="patch_95">
    <path d="M 424.4843 407.12 
L 426.4737 407.12 
L 426.4737 403.20369 
L 424.4843 403.20369 
z
" clip-path="url(#p42d268de62)" style="fill: #1f77b4"/>
   </g>
   <g id="patch_96">
    <path d="M 428.4631 407.12 
L 430.4525 407.12 
L 430.4525 403.114683 
L 428.4631 403.114683 
z
" clip-path="url(#p42d268de62)" style="fill: #1f77b4"/>
   </g>
   <g id="patch_97">
    <path d="M 432.4419 407.12 
L 434.4313 407.12 
L 434.4313 402.936669 
L 432.4419 402.936669 
z
" clip-path="url(#p42d268de62)" style="fill: #1f77b4"/>
   </g>
   <g id="patch_98">
    <path d="M 436.4207 407.12 
L 438.4101 407.12 
L 438.4101 402.402627 
L 436.4207 402.402627 
z
" clip-path="url(#p42d268de62)" style="fill: #1f77b4"/>
   </g>
   <g id="patch_99">
    <path d="M 440.3995 407.12 
L 442.3889 407.12 
L 442.3889 402.402627 
L 440.3995 402.402627 
z
" clip-path="url(#p42d268de62)" style="fill: #1f77b4"/>
   </g>
   <g id="patch_100">
    <path d="M 444.3783 407.12 
L 446.3677 407.12 
L 446.3677 402.402627 
L 444.3783 402.402627 
z
" clip-path="url(#p42d268de62)" style="fill: #1f77b4"/>
   </g>
   <g id="patch_101">
    <path d="M 448.3571 407.12 
L 450.3465 407.12 
L 450.3465 402.31362 
L 448.3571 402.31362 
z
" clip-path="url(#p42d268de62)" style="fill: #1f77b4"/>
   </g>
   <g id="patch_102">
    <path d="M 452.3359 407.12 
L 454.3253 407.12 
L 454.3253 402.224613 
L 452.3359 402.224613 
z
" clip-path="url(#p42d268de62)" style="fill: #1f77b4"/>
   </g>
   <g id="patch_103">
    <path d="M 456.3147 407.12 
L 458.3041 407.12 
L 458.3041 401.957592 
L 456.3147 401.957592 
z
" clip-path="url(#p42d268de62)" style="fill: #1f77b4"/>
   </g>
   <g id="patch_104">
    <path d="M 460.2935 407.12 
L 462.2829 407.12 
L 462.2829 401.868584 
L 460.2935 401.868584 
z
" clip-path="url(#p42d268de62)" style="fill: #1f77b4"/>
   </g>
   <g id="patch_105">
    <path d="M 464.2723 407.12 
L 466.2617 407.12 
L 466.2617 401.868584 
L 464.2723 401.868584 
z
" clip-path="url(#p42d268de62)" style="fill: #1f77b4"/>
   </g>
   <g id="patch_106">
    <path d="M 468.2511 407.12 
L 470.2405 407.12 
L 470.2405 401.779577 
L 468.2511 401.779577 
z
" clip-path="url(#p42d268de62)" style="fill: #1f77b4"/>
   </g>
   <g id="patch_107">
    <path d="M 472.2299 407.12 
L 474.2193 407.12 
L 474.2193 401.779577 
L 472.2299 401.779577 
z
" clip-path="url(#p42d268de62)" style="fill: #1f77b4"/>
   </g>
   <g id="patch_108">
    <path d="M 476.2087 407.12 
L 478.1981 407.12 
L 478.1981 401.601563 
L 476.2087 401.601563 
z
" clip-path="url(#p42d268de62)" style="fill: #1f77b4"/>
   </g>
   <g id="patch_109">
    <path d="M 480.1875 407.12 
L 482.1769 407.12 
L 482.1769 401.601563 
L 480.1875 401.601563 
z
" clip-path="url(#p42d268de62)" style="fill: #1f77b4"/>
   </g>
   <g id="patch_110">
    <path d="M 484.1663 407.12 
L 486.1557 407.12 
L 486.1557 401.601563 
L 484.1663 401.601563 
z
" clip-path="url(#p42d268de62)" style="fill: #1f77b4"/>
   </g>
   <g id="patch_111">
    <path d="M 488.1451 407.12 
L 490.1345 407.12 
L 490.1345 401.423549 
L 488.1451 401.423549 
z
" clip-path="url(#p42d268de62)" style="fill: #1f77b4"/>
   </g>
   <g id="patch_112">
    <path d="M 492.1239 407.12 
L 494.1133 407.12 
L 494.1133 401.423549 
L 492.1239 401.423549 
z
" clip-path="url(#p42d268de62)" style="fill: #1f77b4"/>
   </g>
   <g id="patch_113">
    <path d="M 496.1027 407.12 
L 498.0921 407.12 
L 498.0921 401.334542 
L 496.1027 401.334542 
z
" clip-path="url(#p42d268de62)" style="fill: #1f77b4"/>
   </g>
   <g id="patch_114">
    <path d="M 500.0815 407.12 
L 502.0709 407.12 
L 502.0709 400.889507 
L 500.0815 400.889507 
z
" clip-path="url(#p42d268de62)" style="fill: #1f77b4"/>
   </g>
   <g id="patch_115">
    <path d="M 504.0603 407.12 
L 506.0497 407.12 
L 506.0497 400.889507 
L 504.0603 400.889507 
z
" clip-path="url(#p42d268de62)" style="fill: #1f77b4"/>
   </g>
   <g id="patch_116">
    <path d="M 508.0391 407.12 
L 510.0285 407.12 
L 510.0285 400.622486 
L 508.0391 400.622486 
z
" clip-path="url(#p42d268de62)" style="fill: #1f77b4"/>
   </g>
   <g id="patch_117">
    <path d="M 512.0179 407.12 
L 514.0073 407.12 
L 514.0073 400.266458 
L 512.0179 400.266458 
z
" clip-path="url(#p42d268de62)" style="fill: #1f77b4"/>
   </g>
   <g id="patch_118">
    <path d="M 515.9967 407.12 
L 517.9861 407.12 
L 517.9861 399.999437 
L 515.9967 399.999437 
z
" clip-path="url(#p42d268de62)" style="fill: #1f77b4"/>
   </g>
   <g id="patch_119">
    <path d="M 519.9755 407.12 
L 521.9649 407.12 
L 521.9649 399.821423 
L 519.9755 399.821423 
z
" clip-path="url(#p42d268de62)" style="fill: #1f77b4"/>
   </g>
   <g id="patch_120">
    <path d="M 523.9543 407.12 
L 525.9437 407.12 
L 525.9437 399.376387 
L 523.9543 399.376387 
z
" clip-path="url(#p42d268de62)" style="fill: #1f77b4"/>
   </g>
   <g id="patch_121">
    <path d="M 527.9331 407.12 
L 529.9225 407.12 
L 529.9225 399.020359 
L 527.9331 399.020359 
z
" clip-path="url(#p42d268de62)" style="fill: #1f77b4"/>
   </g>
   <g id="patch_122">
    <path d="M 531.9119 407.12 
L 533.9013 407.12 
L 533.9013 398.664331 
L 531.9119 398.664331 
z
" clip-path="url(#p42d268de62)" style="fill: #1f77b4"/>
   </g>
   <g id="patch_123">
    <path d="M 535.8907 407.12 
L 537.8801 407.12 
L 537.8801 398.575324 
L 535.8907 398.575324 
z
" clip-path="url(#p42d268de62)" style="fill: #1f77b4"/>
   </g>
   <g id="patch_124">
    <path d="M 539.8695 407.12 
L 541.8589 407.12 
L 541.8589 398.308303 
L 539.8695 398.308303 
z
" clip-path="url(#p42d268de62)" style="fill: #1f77b4"/>
   </g>
   <g id="patch_125">
    <path d="M 543.8483 407.12 
L 545.8377 407.12 
L 545.8377 398.130289 
L 543.8483 398.130289 
z
" clip-path="url(#p42d268de62)" style="fill: #1f77b4"/>
   </g>
   <g id="patch_126">
    <path d="M 547.8271 407.12 
L 549.8165 407.12 
L 549.8165 397.952275 
L 547.8271 397.952275 
z
" clip-path="url(#p42d268de62)" style="fill: #1f77b4"/>
   </g>
   <g id="patch_127">
    <path d="M 551.8059 407.12 
L 553.7953 407.12 
L 553.7953 397.596246 
L 551.8059 397.596246 
z
" clip-path="url(#p42d268de62)" style="fill: #1f77b4"/>
   </g>
   <g id="patch_128">
    <path d="M 555.7847 407.12 
L 557.7741 407.12 
L 557.7741 396.973197 
L 555.7847 396.973197 
z
" clip-path="url(#p42d268de62)" style="fill: #1f77b4"/>
   </g>
   <g id="patch_129">
    <path d="M 559.7635 407.12 
L 561.7529 407.12 
L 561.7529 396.706176 
L 559.7635 396.706176 
z
" clip-path="url(#p42d268de62)" style="fill: #1f77b4"/>
   </g>
   <g id="patch_130">
    <path d="M 563.7423 407.12 
L 565.7317 407.12 
L 565.7317 396.350148 
L 563.7423 396.350148 
z
" clip-path="url(#p42d268de62)" style="fill: #1f77b4"/>
   </g>
   <g id="patch_131">
    <path d="M 567.7211 407.12 
L 569.7105 407.12 
L 569.7105 395.99412 
L 567.7211 395.99412 
z
" clip-path="url(#p42d268de62)" style="fill: #1f77b4"/>
   </g>
   <g id="patch_132">
    <path d="M 571.6999 407.12 
L 573.6893 407.12 
L 573.6893 395.638092 
L 571.6999 395.638092 
z
" clip-path="url(#p42d268de62)" style="fill: #1f77b4"/>
   </g>
   <g id="patch_133">
    <path d="M 575.6787 407.12 
L 577.6681 407.12 
L 577.6681 395.015042 
L 575.6787 395.015042 
z
" clip-path="url(#p42d268de62)" style="fill: #1f77b4"/>
   </g>
   <g id="patch_134">
    <path d="M 579.6575 407.12 
L 581.6469 407.12 
L 581.6469 394.659014 
L 579.6575 394.659014 
z
" clip-path="url(#p42d268de62)" style="fill: #1f77b4"/>
   </g>
   <g id="patch_135">
    <path d="M 583.6363 407.12 
L 585.6257 407.12 
L 585.6257 394.481 
L 583.6363 394.481 
z
" clip-path="url(#p42d268de62)" style="fill: #1f77b4"/>
   </g>
   <g id="patch_136">
    <path d="M 587.6151 407.12 
L 589.6045 407.12 
L 589.6045 394.481 
L 587.6151 394.481 
z
" clip-path="url(#p42d268de62)" style="fill: #1f77b4"/>
   </g>
   <g id="patch_137">
    <path d="M 591.5939 407.12 
L 593.5833 407.12 
L 593.5833 394.213979 
L 591.5939 394.213979 
z
" clip-path="url(#p42d268de62)" style="fill: #1f77b4"/>
   </g>
   <g id="patch_138">
    <path d="M 595.5727 407.12 
L 597.5621 407.12 
L 597.5621 392.344831 
L 595.5727 392.344831 
z
" clip-path="url(#p42d268de62)" style="fill: #1f77b4"/>
   </g>
   <g id="patch_139">
    <path d="M 599.5515 407.12 
L 601.5409 407.12 
L 601.5409 391.632775 
L 599.5515 391.632775 
z
" clip-path="url(#p42d268de62)" style="fill: #1f77b4"/>
   </g>
   <g id="patch_140">
    <path d="M 603.5303 407.12 
L 605.5197 407.12 
L 605.5197 391.365753 
L 603.5303 391.365753 
z
" clip-path="url(#p42d268de62)" style="fill: #1f77b4"/>
   </g>
   <g id="patch_141">
    <path d="M 607.5091 407.12 
L 609.4985 407.12 
L 609.4985 391.187739 
L 607.5091 391.187739 
z
" clip-path="url(#p42d268de62)" style="fill: #1f77b4"/>
   </g>
   <g id="patch_142">
    <path d="M 611.4879 407.12 
L 613.4773 407.12 
L 613.4773 390.030648 
L 611.4879 390.030648 
z
" clip-path="url(#p42d268de62)" style="fill: #1f77b4"/>
   </g>
   <g id="patch_143">
    <path d="M 615.4667 407.12 
L 617.4561 407.12 
L 617.4561 388.695542 
L 615.4667 388.695542 
z
" clip-path="url(#p42d268de62)" style="fill: #1f77b4"/>
   </g>
   <g id="patch_144">
    <path d="M 619.4455 407.12 
L 621.4349 407.12 
L 621.4349 388.517528 
L 619.4455 388.517528 
z
" clip-path="url(#p42d268de62)" style="fill: #1f77b4"/>
   </g>
   <g id="patch_145">
    <path d="M 623.4243 407.12 
L 625.4137 407.12 
L 625.4137 387.983486 
L 623.4243 387.983486 
z
" clip-path="url(#p42d268de62)" style="fill: #1f77b4"/>
   </g>
   <g id="patch_146">
    <path d="M 627.4031 407.12 
L 629.3925 407.12 
L 629.3925 387.805472 
L 627.4031 387.805472 
z
" clip-path="url(#p42d268de62)" style="fill: #1f77b4"/>
   </g>
   <g id="patch_147">
    <path d="M 631.3819 407.12 
L 633.3713 407.12 
L 633.3713 387.360437 
L 631.3819 387.360437 
z
" clip-path="url(#p42d268de62)" style="fill: #1f77b4"/>
   </g>
   <g id="patch_148">
    <path d="M 635.3607 407.12 
L 637.3501 407.12 
L 637.3501 387.360437 
L 635.3607 387.360437 
z
" clip-path="url(#p42d268de62)" style="fill: #1f77b4"/>
   </g>
   <g id="patch_149">
    <path d="M 639.3395 407.12 
L 641.3289 407.12 
L 641.3289 386.203345 
L 639.3395 386.203345 
z
" clip-path="url(#p42d268de62)" style="fill: #1f77b4"/>
   </g>
   <g id="patch_150">
    <path d="M 643.3183 407.12 
L 645.3077 407.12 
L 645.3077 386.203345 
L 643.3183 386.203345 
z
" clip-path="url(#p42d268de62)" style="fill: #1f77b4"/>
   </g>
   <g id="patch_151">
    <path d="M 647.2971 407.12 
L 649.2865 407.12 
L 649.2865 385.936324 
L 647.2971 385.936324 
z
" clip-path="url(#p42d268de62)" style="fill: #1f77b4"/>
   </g>
   <g id="patch_152">
    <path d="M 651.2759 407.12 
L 653.2653 407.12 
L 653.2653 385.847317 
L 651.2759 385.847317 
z
" clip-path="url(#p42d268de62)" style="fill: #1f77b4"/>
   </g>
   <g id="patch_153">
    <path d="M 655.2547 407.12 
L 657.2441 407.12 
L 657.2441 382.465049 
L 655.2547 382.465049 
z
" clip-path="url(#p42d268de62)" style="fill: #1f77b4"/>
   </g>
   <g id="patch_154">
    <path d="M 659.2335 407.12 
L 661.2229 407.12 
L 661.2229 381.574979 
L 659.2335 381.574979 
z
" clip-path="url(#p42d268de62)" style="fill: #1f77b4"/>
   </g>
   <g id="patch_155">
    <path d="M 663.2123 407.12 
L 665.2017 407.12 
L 665.2017 381.485972 
L 663.2123 381.485972 
z
" clip-path="url(#p42d268de62)" style="fill: #1f77b4"/>
   </g>
   <g id="patch_156">
    <path d="M 667.1911 407.12 
L 669.1805 407.12 
L 669.1805 381.485972 
L 667.1911 381.485972 
z
" clip-path="url(#p42d268de62)" style="fill: #1f77b4"/>
   </g>
   <g id="patch_157">
    <path d="M 671.1699 407.12 
L 673.1593 407.12 
L 673.1593 381.218951 
L 671.1699 381.218951 
z
" clip-path="url(#p42d268de62)" style="fill: #1f77b4"/>
   </g>
   <g id="patch_158">
    <path d="M 675.1487 407.12 
L 677.1381 407.12 
L 677.1381 381.129944 
L 675.1487 381.129944 
z
" clip-path="url(#p42d268de62)" style="fill: #1f77b4"/>
   </g>
   <g id="patch_159">
    <path d="M 679.1275 407.12 
L 681.1169 407.12 
L 681.1169 380.684908 
L 679.1275 380.684908 
z
" clip-path="url(#p42d268de62)" style="fill: #1f77b4"/>
   </g>
   <g id="patch_160">
    <path d="M 683.1063 407.12 
L 685.0957 407.12 
L 685.0957 380.417887 
L 683.1063 380.417887 
z
" clip-path="url(#p42d268de62)" style="fill: #1f77b4"/>
   </g>
   <g id="patch_161">
    <path d="M 687.0851 407.12 
L 689.0745 407.12 
L 689.0745 379.616824 
L 687.0851 379.616824 
z
" clip-path="url(#p42d268de62)" style="fill: #1f77b4"/>
   </g>
   <g id="patch_162">
    <path d="M 691.0639 407.12 
L 693.0533 407.12 
L 693.0533 378.014697 
L 691.0639 378.014697 
z
" clip-path="url(#p42d268de62)" style="fill: #1f77b4"/>
   </g>
   <g id="patch_163">
    <path d="M 695.0427 407.12 
L 697.0321 407.12 
L 697.0321 375.344486 
L 695.0427 375.344486 
z
" clip-path="url(#p42d268de62)" style="fill: #1f77b4"/>
   </g>
   <g id="patch_164">
    <path d="M 699.0215 407.12 
L 701.0109 407.12 
L 701.0109 374.00938 
L 699.0215 374.00938 
z
" clip-path="url(#p42d268de62)" style="fill: #1f77b4"/>
   </g>
   <g id="patch_165">
    <path d="M 703.0003 407.12 
L 704.9897 407.12 
L 704.9897 372.763282 
L 703.0003 372.763282 
z
" clip-path="url(#p42d268de62)" style="fill: #1f77b4"/>
   </g>
   <g id="patch_166">
    <path d="M 706.9791 407.12 
L 708.9685 407.12 
L 708.9685 366.17676 
L 706.9791 366.17676 
z
" clip-path="url(#p42d268de62)" style="fill: #1f77b4"/>
   </g>
   <g id="patch_167">
    <path d="M 710.9579 407.12 
L 712.9473 407.12 
L 712.9473 364.218605 
L 710.9579 364.218605 
z
" clip-path="url(#p42d268de62)" style="fill: #1f77b4"/>
   </g>
   <g id="patch_168">
    <path d="M 714.9367 407.12 
L 716.9261 407.12 
L 716.9261 363.595556 
L 714.9367 363.595556 
z
" clip-path="url(#p42d268de62)" style="fill: #1f77b4"/>
   </g>
   <g id="patch_169">
    <path d="M 718.9155 407.12 
L 720.9049 407.12 
L 720.9049 363.150521 
L 718.9155 363.150521 
z
" clip-path="url(#p42d268de62)" style="fill: #1f77b4"/>
   </g>
   <g id="patch_170">
    <path d="M 722.8943 407.12 
L 724.8837 407.12 
L 724.8837 362.171443 
L 722.8943 362.171443 
z
" clip-path="url(#p42d268de62)" style="fill: #1f77b4"/>
   </g>
   <g id="patch_171">
    <path d="M 726.8731 407.12 
L 728.8625 407.12 
L 728.8625 360.124282 
L 726.8731 360.124282 
z
" clip-path="url(#p42d268de62)" style="fill: #1f77b4"/>
   </g>
   <g id="patch_172">
    <path d="M 730.8519 407.12 
L 732.8413 407.12 
L 732.8413 359.145204 
L 730.8519 359.145204 
z
" clip-path="url(#p42d268de62)" style="fill: #1f77b4"/>
   </g>
   <g id="patch_173">
    <path d="M 734.8307 407.12 
L 736.8201 407.12 
L 736.8201 356.920028 
L 734.8307 356.920028 
z
" clip-path="url(#p42d268de62)" style="fill: #1f77b4"/>
   </g>
   <g id="patch_174">
    <path d="M 738.8095 407.12 
L 740.7989 407.12 
L 740.7989 354.427831 
L 738.8095 354.427831 
z
" clip-path="url(#p42d268de62)" style="fill: #1f77b4"/>
   </g>
   <g id="patch_175">
    <path d="M 742.7883 407.12 
L 744.7777 407.12 
L 744.7777 350.422514 
L 742.7883 350.422514 
z
" clip-path="url(#p42d268de62)" style="fill: #1f77b4"/>
   </g>
   <g id="patch_176">
    <path d="M 746.7671 407.12 
L 748.7565 407.12 
L 748.7565 350.422514 
L 746.7671 350.422514 
z
" clip-path="url(#p42d268de62)" style="fill: #1f77b4"/>
   </g>
   <g id="patch_177">
    <path d="M 750.7459 407.12 
L 752.7353 407.12 
L 752.7353 343.925 
L 750.7459 343.925 
z
" clip-path="url(#p42d268de62)" style="fill: #1f77b4"/>
   </g>
   <g id="patch_178">
    <path d="M 754.7247 407.12 
L 756.7141 407.12 
L 756.7141 339.029612 
L 754.7247 339.029612 
z
" clip-path="url(#p42d268de62)" style="fill: #1f77b4"/>
   </g>
   <g id="patch_179">
    <path d="M 758.7035 407.12 
L 760.6929 407.12 
L 760.6929 335.647345 
L 758.7035 335.647345 
z
" clip-path="url(#p42d268de62)" style="fill: #1f77b4"/>
   </g>
   <g id="patch_180">
    <path d="M 762.6823 407.12 
L 764.6717 407.12 
L 764.6717 330.395929 
L 762.6823 330.395929 
z
" clip-path="url(#p42d268de62)" style="fill: #1f77b4"/>
   </g>
   <g id="patch_181">
    <path d="M 766.6611 407.12 
L 768.6505 407.12 
L 768.6505 326.835648 
L 766.6611 326.835648 
z
" clip-path="url(#p42d268de62)" style="fill: #1f77b4"/>
   </g>
   <g id="patch_182">
    <path d="M 770.6399 407.12 
L 772.6293 407.12 
L 772.6293 322.296288 
L 770.6399 322.296288 
z
" clip-path="url(#p42d268de62)" style="fill: #1f77b4"/>
   </g>
   <g id="patch_183">
    <path d="M 774.6187 407.12 
L 776.6081 407.12 
L 776.6081 318.647 
L 774.6187 318.647 
z
" clip-path="url(#p42d268de62)" style="fill: #1f77b4"/>
   </g>
   <g id="patch_184">
    <path d="M 778.5975 407.12 
L 780.5869 407.12 
L 780.5869 315.442746 
L 778.5975 315.442746 
z
" clip-path="url(#p42d268de62)" style="fill: #1f77b4"/>
   </g>
   <g id="patch_185">
    <path d="M 782.5763 407.12 
L 784.5657 407.12 
L 784.5657 291.677866 
L 782.5763 291.677866 
z
" clip-path="url(#p42d268de62)" style="fill: #1f77b4"/>
   </g>
   <g id="patch_186">
    <path d="M 786.5551 407.12 
L 788.5445 407.12 
L 788.5445 287.0495 
L 786.5551 287.0495 
z
" clip-path="url(#p42d268de62)" style="fill: #1f77b4"/>
   </g>
   <g id="patch_187">
    <path d="M 790.5339 407.12 
L 792.5233 407.12 
L 792.5233 281.709077 
L 790.5339 281.709077 
z
" clip-path="url(#p42d268de62)" style="fill: #1f77b4"/>
   </g>
   <g id="patch_188">
    <path d="M 794.5127 407.12 
L 796.5021 407.12 
L 796.5021 279.750922 
L 794.5127 279.750922 
z
" clip-path="url(#p42d268de62)" style="fill: #1f77b4"/>
   </g>
   <g id="patch_189">
    <path d="M 798.4915 407.12 
L 800.4809 407.12 
L 800.4809 279.21688 
L 798.4915 279.21688 
z
" clip-path="url(#p42d268de62)" style="fill: #1f77b4"/>
   </g>
   <g id="patch_190">
    <path d="M 802.4703 407.12 
L 804.4597 407.12 
L 804.4597 275.567591 
L 802.4703 275.567591 
z
" clip-path="url(#p42d268de62)" style="fill: #1f77b4"/>
   </g>
   <g id="patch_191">
    <path d="M 806.4491 407.12 
L 808.4385 407.12 
L 808.4385 231.06407 
L 806.4491 231.06407 
z
" clip-path="url(#p42d268de62)" style="fill: #1f77b4"/>
   </g>
   <g id="patch_192">
    <path d="M 810.4279 407.12 
L 812.4173 407.12 
L 812.4173 229.194922 
L 810.4279 229.194922 
z
" clip-path="url(#p42d268de62)" style="fill: #1f77b4"/>
   </g>
   <g id="patch_193">
    <path d="M 814.4067 407.12 
L 816.3961 407.12 
L 816.3961 226.079675 
L 814.4067 226.079675 
z
" clip-path="url(#p42d268de62)" style="fill: #1f77b4"/>
   </g>
   <g id="patch_194">
    <path d="M 818.3855 407.12 
L 820.3749 407.12 
L 820.3749 222.430387 
L 818.3855 222.430387 
z
" clip-path="url(#p42d268de62)" style="fill: #1f77b4"/>
   </g>
   <g id="patch_195">
    <path d="M 822.3643 407.12 
L 824.3537 407.12 
L 824.3537 205.697063 
L 822.3643 205.697063 
z
" clip-path="url(#p42d268de62)" style="fill: #1f77b4"/>
   </g>
   <g id="patch_196">
    <path d="M 826.3431 407.12 
L 828.3325 407.12 
L 828.3325 189.319767 
L 826.3431 189.319767 
z
" clip-path="url(#p42d268de62)" style="fill: #1f77b4"/>
   </g>
   <g id="patch_197">
    <path d="M 830.3219 407.12 
L 832.3113 407.12 
L 832.3113 182.644239 
L 830.3219 182.644239 
z
" clip-path="url(#p42d268de62)" style="fill: #1f77b4"/>
   </g>
   <g id="patch_198">
    <path d="M 834.3007 407.12 
L 836.2901 407.12 
L 836.2901 178.193886 
L 834.3007 178.193886 
z
" clip-path="url(#p42d268de62)" style="fill: #1f77b4"/>
   </g>
   <g id="patch_199">
    <path d="M 838.2795 407.12 
L 840.2689 407.12 
L 840.2689 165.109851 
L 838.2795 165.109851 
z
" clip-path="url(#p42d268de62)" style="fill: #1f77b4"/>
   </g>
   <g id="patch_200">
    <path d="M 842.2583 407.12 
L 844.2477 407.12 
L 844.2477 137.517668 
L 842.2583 137.517668 
z
" clip-path="url(#p42d268de62)" style="fill: #1f77b4"/>
   </g>
   <g id="patch_201">
    <path d="M 846.2371 407.12 
L 848.2265 407.12 
L 848.2265 105.831161 
L 846.2371 105.831161 
z
" clip-path="url(#p42d268de62)" style="fill: #1f77b4"/>
   </g>
   <g id="patch_202">
    <path d="M 850.2159 407.12 
L 852.2053 407.12 
L 852.2053 43.615238 
L 850.2159 43.615238 
z
" clip-path="url(#p42d268de62)" style="fill: #1f77b4"/>
   </g>
   <g id="matplotlib.axis_1">
    <g id="xtick_1"/>
    <g id="xtick_2"/>
    <g id="xtick_3"/>
    <g id="xtick_4"/>
    <g id="xtick_5"/>
    <g id="xtick_6"/>
    <g id="xtick_7"/>
    <g id="xtick_8"/>
    <g id="xtick_9"/>
    <g id="xtick_10"/>
    <g id="xtick_11"/>
    <g id="xtick_12"/>
    <g id="xtick_13"/>
    <g id="xtick_14"/>
    <g id="xtick_15"/>
    <g id="xtick_16"/>
    <g id="xtick_17"/>
    <g id="xtick_18"/>
    <g id="xtick_19"/>
    <g id="xtick_20"/>
    <g id="xtick_21"/>
    <g id="xtick_22"/>
    <g id="xtick_23"/>
    <g id="xtick_24"/>
    <g id="xtick_25"/>
    <g id="xtick_26"/>
    <g id="xtick_27"/>
    <g id="xtick_28"/>
    <g id="xtick_29"/>
    <g id="xtick_30"/>
    <g id="xtick_31"/>
    <g id="xtick_32"/>
    <g id="xtick_33"/>
    <g id="xtick_34"/>
    <g id="xtick_35"/>
    <g id="xtick_36"/>
    <g id="xtick_37"/>
    <g id="xtick_38"/>
    <g id="xtick_39"/>
    <g id="xtick_40"/>
    <g id="xtick_41"/>
    <g id="xtick_42"/>
    <g id="xtick_43"/>
    <g id="xtick_44"/>
    <g id="xtick_45"/>
    <g id="xtick_46"/>
    <g id="xtick_47"/>
    <g id="xtick_48"/>
    <g id="xtick_49"/>
    <g id="xtick_50"/>
    <g id="xtick_51"/>
    <g id="xtick_52"/>
    <g id="xtick_53"/>
    <g id="xtick_54"/>
    <g id="xtick_55"/>
    <g id="xtick_56"/>
    <g id="xtick_57"/>
    <g id="xtick_58"/>
    <g id="xtick_59"/>
    <g id="xtick_60"/>
    <g id="xtick_61"/>
    <g id="xtick_62"/>
    <g id="xtick_63"/>
    <g id="xtick_64"/>
    <g id="xtick_65"/>
    <g id="xtick_66"/>
    <g id="xtick_67"/>
    <g id="xtick_68"/>
    <g id="xtick_69"/>
    <g id="xtick_70"/>
    <g id="xtick_71"/>
    <g id="xtick_72"/>
    <g id="xtick_73"/>
    <g id="xtick_74"/>
    <g id="xtick_75"/>
    <g id="xtick_76"/>
    <g id="xtick_77"/>
    <g id="xtick_78"/>
    <g id="xtick_79"/>
    <g id="xtick_80"/>
    <g id="xtick_81"/>
    <g id="xtick_82"/>
    <g id="xtick_83"/>
    <g id="xtick_84"/>
    <g id="xtick_85"/>
    <g id="xtick_86"/>
    <g id="xtick_87"/>
    <g id="xtick_88"/>
    <g id="xtick_89"/>
    <g id="xtick_90"/>
    <g id="xtick_91"/>
    <g id="xtick_92"/>
    <g id="xtick_93"/>
    <g id="xtick_94"/>
    <g id="xtick_95"/>
    <g id="xtick_96"/>
    <g id="xtick_97"/>
    <g id="xtick_98"/>
    <g id="xtick_99"/>
    <g id="xtick_100"/>
    <g id="xtick_101"/>
    <g id="xtick_102"/>
    <g id="xtick_103"/>
    <g id="xtick_104"/>
    <g id="xtick_105"/>
    <g id="xtick_106"/>
    <g id="xtick_107"/>
    <g id="xtick_108"/>
    <g id="xtick_109"/>
    <g id="xtick_110"/>
    <g id="xtick_111"/>
    <g id="xtick_112"/>
    <g id="xtick_113"/>
    <g id="xtick_114"/>
    <g id="xtick_115"/>
    <g id="xtick_116"/>
    <g id="xtick_117"/>
    <g id="xtick_118"/>
    <g id="xtick_119"/>
    <g id="xtick_120"/>
    <g id="xtick_121"/>
    <g id="xtick_122"/>
    <g id="xtick_123"/>
    <g id="xtick_124"/>
    <g id="xtick_125"/>
    <g id="xtick_126"/>
    <g id="xtick_127"/>
    <g id="xtick_128"/>
    <g id="xtick_129"/>
    <g id="xtick_130"/>
    <g id="xtick_131"/>
    <g id="xtick_132"/>
    <g id="xtick_133"/>
    <g id="xtick_134"/>
    <g id="xtick_135"/>
    <g id="xtick_136"/>
    <g id="xtick_137"/>
    <g id="xtick_138"/>
    <g id="xtick_139"/>
    <g id="xtick_140"/>
    <g id="xtick_141"/>
    <g id="xtick_142"/>
    <g id="xtick_143"/>
    <g id="xtick_144"/>
    <g id="xtick_145"/>
    <g id="xtick_146"/>
    <g id="xtick_147"/>
    <g id="xtick_148"/>
    <g id="xtick_149"/>
    <g id="xtick_150"/>
    <g id="xtick_151"/>
    <g id="xtick_152"/>
    <g id="xtick_153"/>
    <g id="xtick_154"/>
    <g id="xtick_155"/>
    <g id="xtick_156"/>
    <g id="xtick_157"/>
    <g id="xtick_158"/>
    <g id="xtick_159"/>
    <g id="xtick_160"/>
    <g id="xtick_161"/>
    <g id="xtick_162"/>
    <g id="xtick_163"/>
    <g id="xtick_164"/>
    <g id="xtick_165"/>
    <g id="xtick_166"/>
    <g id="xtick_167"/>
    <g id="xtick_168"/>
    <g id="xtick_169"/>
    <g id="xtick_170"/>
    <g id="xtick_171"/>
    <g id="xtick_172"/>
    <g id="xtick_173"/>
    <g id="xtick_174"/>
    <g id="xtick_175"/>
    <g id="xtick_176"/>
    <g id="xtick_177"/>
    <g id="xtick_178"/>
    <g id="xtick_179"/>
    <g id="xtick_180"/>
    <g id="xtick_181"/>
    <g id="xtick_182"/>
    <g id="xtick_183"/>
    <g id="xtick_184"/>
    <g id="xtick_185"/>
    <g id="xtick_186"/>
    <g id="xtick_187"/>
    <g id="xtick_188"/>
    <g id="xtick_189"/>
    <g id="xtick_190"/>
    <g id="xtick_191"/>
    <g id="xtick_192"/>
    <g id="xtick_193"/>
    <g id="xtick_194"/>
    <g id="xtick_195"/>
    <g id="xtick_196"/>
    <g id="xtick_197"/>
    <g id="xtick_198"/>
    <g id="xtick_199"/>
    <g id="xtick_200"/>
    <g id="text_1">
     <!-- Category -->
     <g transform="translate(432.479375 418.718437) scale(0.1 -0.1)">
      <defs>
       <path id="DejaVuSans-43" d="M 4122 4306 
L 4122 3641 
Q 3803 3938 3442 4084 
Q 3081 4231 2675 4231 
Q 1875 4231 1450 3742 
Q 1025 3253 1025 2328 
Q 1025 1406 1450 917 
Q 1875 428 2675 428 
Q 3081 428 3442 575 
Q 3803 722 4122 1019 
L 4122 359 
Q 3791 134 3420 21 
Q 3050 -91 2638 -91 
Q 1578 -91 968 557 
Q 359 1206 359 2328 
Q 359 3453 968 4101 
Q 1578 4750 2638 4750 
Q 3056 4750 3426 4639 
Q 3797 4528 4122 4306 
z
" transform="scale(0.015625)"/>
       <path id="DejaVuSans-61" d="M 2194 1759 
Q 1497 1759 1228 1600 
Q 959 1441 959 1056 
Q 959 750 1161 570 
Q 1363 391 1709 391 
Q 2188 391 2477 730 
Q 2766 1069 2766 1631 
L 2766 1759 
L 2194 1759 
z
M 3341 1997 
L 3341 0 
L 2766 0 
L 2766 531 
Q 2569 213 2275 61 
Q 1981 -91 1556 -91 
Q 1019 -91 701 211 
Q 384 513 384 1019 
Q 384 1609 779 1909 
Q 1175 2209 1959 2209 
L 2766 2209 
L 2766 2266 
Q 2766 2663 2505 2880 
Q 2244 3097 1772 3097 
Q 1472 3097 1187 3025 
Q 903 2953 641 2809 
L 641 3341 
Q 956 3463 1253 3523 
Q 1550 3584 1831 3584 
Q 2591 3584 2966 3190 
Q 3341 2797 3341 1997 
z
" transform="scale(0.015625)"/>
       <path id="DejaVuSans-74" d="M 1172 4494 
L 1172 3500 
L 2356 3500 
L 2356 3053 
L 1172 3053 
L 1172 1153 
Q 1172 725 1289 603 
Q 1406 481 1766 481 
L 2356 481 
L 2356 0 
L 1766 0 
Q 1100 0 847 248 
Q 594 497 594 1153 
L 594 3053 
L 172 3053 
L 172 3500 
L 594 3500 
L 594 4494 
L 1172 4494 
z
" transform="scale(0.015625)"/>
       <path id="DejaVuSans-65" d="M 3597 1894 
L 3597 1613 
L 953 1613 
Q 991 1019 1311 708 
Q 1631 397 2203 397 
Q 2534 397 2845 478 
Q 3156 559 3463 722 
L 3463 178 
Q 3153 47 2828 -22 
Q 2503 -91 2169 -91 
Q 1331 -91 842 396 
Q 353 884 353 1716 
Q 353 2575 817 3079 
Q 1281 3584 2069 3584 
Q 2775 3584 3186 3129 
Q 3597 2675 3597 1894 
z
M 3022 2063 
Q 3016 2534 2758 2815 
Q 2500 3097 2075 3097 
Q 1594 3097 1305 2825 
Q 1016 2553 972 2059 
L 3022 2063 
z
" transform="scale(0.015625)"/>
       <path id="DejaVuSans-67" d="M 2906 1791 
Q 2906 2416 2648 2759 
Q 2391 3103 1925 3103 
Q 1463 3103 1205 2759 
Q 947 2416 947 1791 
Q 947 1169 1205 825 
Q 1463 481 1925 481 
Q 2391 481 2648 825 
Q 2906 1169 2906 1791 
z
M 3481 434 
Q 3481 -459 3084 -895 
Q 2688 -1331 1869 -1331 
Q 1566 -1331 1297 -1286 
Q 1028 -1241 775 -1147 
L 775 -588 
Q 1028 -725 1275 -790 
Q 1522 -856 1778 -856 
Q 2344 -856 2625 -561 
Q 2906 -266 2906 331 
L 2906 616 
Q 2728 306 2450 153 
Q 2172 0 1784 0 
Q 1141 0 747 490 
Q 353 981 353 1791 
Q 353 2603 747 3093 
Q 1141 3584 1784 3584 
Q 2172 3584 2450 3431 
Q 2728 3278 2906 2969 
L 2906 3500 
L 3481 3500 
L 3481 434 
z
" transform="scale(0.015625)"/>
       <path id="DejaVuSans-6f" d="M 1959 3097 
Q 1497 3097 1228 2736 
Q 959 2375 959 1747 
Q 959 1119 1226 758 
Q 1494 397 1959 397 
Q 2419 397 2687 759 
Q 2956 1122 2956 1747 
Q 2956 2369 2687 2733 
Q 2419 3097 1959 3097 
z
M 1959 3584 
Q 2709 3584 3137 3096 
Q 3566 2609 3566 1747 
Q 3566 888 3137 398 
Q 2709 -91 1959 -91 
Q 1206 -91 779 398 
Q 353 888 353 1747 
Q 353 2609 779 3096 
Q 1206 3584 1959 3584 
z
" transform="scale(0.015625)"/>
       <path id="DejaVuSans-72" d="M 2631 2963 
Q 2534 3019 2420 3045 
Q 2306 3072 2169 3072 
Q 1681 3072 1420 2755 
Q 1159 2438 1159 1844 
L 1159 0 
L 581 0 
L 581 3500 
L 1159 3500 
L 1159 2956 
Q 1341 3275 1631 3429 
Q 1922 3584 2338 3584 
Q 2397 3584 2469 3576 
Q 2541 3569 2628 3553 
L 2631 2963 
z
" transform="scale(0.015625)"/>
       <path id="DejaVuSans-79" d="M 2059 -325 
Q 1816 -950 1584 -1140 
Q 1353 -1331 966 -1331 
L 506 -1331 
L 506 -850 
L 844 -850 
Q 1081 -850 1212 -737 
Q 1344 -625 1503 -206 
L 1606 56 
L 191 3500 
L 800 3500 
L 1894 763 
L 2988 3500 
L 3597 3500 
L 2059 -325 
z
" transform="scale(0.015625)"/>
      </defs>
      <use xlink:href="#DejaVuSans-43"/>
      <use xlink:href="#DejaVuSans-61" transform="translate(69.824219 0)"/>
      <use xlink:href="#DejaVuSans-74" transform="translate(131.103516 0)"/>
      <use xlink:href="#DejaVuSans-65" transform="translate(170.3125 0)"/>
      <use xlink:href="#DejaVuSans-67" transform="translate(231.835938 0)"/>
      <use xlink:href="#DejaVuSans-6f" transform="translate(295.3125 0)"/>
      <use xlink:href="#DejaVuSans-72" transform="translate(356.494141 0)"/>
      <use xlink:href="#DejaVuSans-79" transform="translate(397.607422 0)"/>
     </g>
    </g>
   </g>
   <g id="matplotlib.axis_2">
    <g id="ytick_1">
     <g id="line2d_1">
      <defs>
       <path id="m4feb3bbbc0" d="M 0 0 
L -3.5 0 
" style="stroke: #000000; stroke-width: 0.8"/>
      </defs>
      <g>
       <use xlink:href="#m4feb3bbbc0" x="57.44" y="407.12" style="stroke: #000000; stroke-width: 0.8"/>
      </g>
     </g>
     <g id="text_2">
      <!-- 0 -->
      <g transform="translate(44.0775 410.919219) scale(0.1 -0.1)">
       <defs>
        <path id="DejaVuSans-30" d="M 2034 4250 
Q 1547 4250 1301 3770 
Q 1056 3291 1056 2328 
Q 1056 1369 1301 889 
Q 1547 409 2034 409 
Q 2525 409 2770 889 
Q 3016 1369 3016 2328 
Q 3016 3291 2770 3770 
Q 2525 4250 2034 4250 
z
M 2034 4750 
Q 2819 4750 3233 4129 
Q 3647 3509 3647 2328 
Q 3647 1150 3233 529 
Q 2819 -91 2034 -91 
Q 1250 -91 836 529 
Q 422 1150 422 2328 
Q 422 3509 836 4129 
Q 1250 4750 2034 4750 
z
" transform="scale(0.015625)"/>
       </defs>
       <use xlink:href="#DejaVuSans-30"/>
      </g>
     </g>
    </g>
    <g id="ytick_2">
     <g id="line2d_2">
      <g>
       <use xlink:href="#m4feb3bbbc0" x="57.44" y="362.616479" style="stroke: #000000; stroke-width: 0.8"/>
      </g>
     </g>
     <g id="text_3">
      <!-- 500 -->
      <g transform="translate(31.3525 366.415697) scale(0.1 -0.1)">
       <defs>
        <path id="DejaVuSans-35" d="M 691 4666 
L 3169 4666 
L 3169 4134 
L 1269 4134 
L 1269 2991 
Q 1406 3038 1543 3061 
Q 1681 3084 1819 3084 
Q 2600 3084 3056 2656 
Q 3513 2228 3513 1497 
Q 3513 744 3044 326 
Q 2575 -91 1722 -91 
Q 1428 -91 1123 -41 
Q 819 9 494 109 
L 494 744 
Q 775 591 1075 516 
Q 1375 441 1709 441 
Q 2250 441 2565 725 
Q 2881 1009 2881 1497 
Q 2881 1984 2565 2268 
Q 2250 2553 1709 2553 
Q 1456 2553 1204 2497 
Q 953 2441 691 2322 
L 691 4666 
z
" transform="scale(0.015625)"/>
       </defs>
       <use xlink:href="#DejaVuSans-35"/>
       <use xlink:href="#DejaVuSans-30" transform="translate(63.623047 0)"/>
       <use xlink:href="#DejaVuSans-30" transform="translate(127.246094 0)"/>
      </g>
     </g>
    </g>
    <g id="ytick_3">
     <g id="line2d_3">
      <g>
       <use xlink:href="#m4feb3bbbc0" x="57.44" y="318.112957" style="stroke: #000000; stroke-width: 0.8"/>
      </g>
     </g>
     <g id="text_4">
      <!-- 1000 -->
      <g transform="translate(24.99 321.912176) scale(0.1 -0.1)">
       <defs>
        <path id="DejaVuSans-31" d="M 794 531 
L 1825 531 
L 1825 4091 
L 703 3866 
L 703 4441 
L 1819 4666 
L 2450 4666 
L 2450 531 
L 3481 531 
L 3481 0 
L 794 0 
L 794 531 
z
" transform="scale(0.015625)"/>
       </defs>
       <use xlink:href="#DejaVuSans-31"/>
       <use xlink:href="#DejaVuSans-30" transform="translate(63.623047 0)"/>
       <use xlink:href="#DejaVuSans-30" transform="translate(127.246094 0)"/>
       <use xlink:href="#DejaVuSans-30" transform="translate(190.869141 0)"/>
      </g>
     </g>
    </g>
    <g id="ytick_4">
     <g id="line2d_4">
      <g>
       <use xlink:href="#m4feb3bbbc0" x="57.44" y="273.609436" style="stroke: #000000; stroke-width: 0.8"/>
      </g>
     </g>
     <g id="text_5">
      <!-- 1500 -->
      <g transform="translate(24.99 277.408655) scale(0.1 -0.1)">
       <use xlink:href="#DejaVuSans-31"/>
       <use xlink:href="#DejaVuSans-35" transform="translate(63.623047 0)"/>
       <use xlink:href="#DejaVuSans-30" transform="translate(127.246094 0)"/>
       <use xlink:href="#DejaVuSans-30" transform="translate(190.869141 0)"/>
      </g>
     </g>
    </g>
    <g id="ytick_5">
     <g id="line2d_5">
      <g>
       <use xlink:href="#m4feb3bbbc0" x="57.44" y="229.105915" style="stroke: #000000; stroke-width: 0.8"/>
      </g>
     </g>
     <g id="text_6">
      <!-- 2000 -->
      <g transform="translate(24.99 232.905134) scale(0.1 -0.1)">
       <defs>
        <path id="DejaVuSans-32" d="M 1228 531 
L 3431 531 
L 3431 0 
L 469 0 
L 469 531 
Q 828 903 1448 1529 
Q 2069 2156 2228 2338 
Q 2531 2678 2651 2914 
Q 2772 3150 2772 3378 
Q 2772 3750 2511 3984 
Q 2250 4219 1831 4219 
Q 1534 4219 1204 4116 
Q 875 4013 500 3803 
L 500 4441 
Q 881 4594 1212 4672 
Q 1544 4750 1819 4750 
Q 2544 4750 2975 4387 
Q 3406 4025 3406 3419 
Q 3406 3131 3298 2873 
Q 3191 2616 2906 2266 
Q 2828 2175 2409 1742 
Q 1991 1309 1228 531 
z
" transform="scale(0.015625)"/>
       </defs>
       <use xlink:href="#DejaVuSans-32"/>
       <use xlink:href="#DejaVuSans-30" transform="translate(63.623047 0)"/>
       <use xlink:href="#DejaVuSans-30" transform="translate(127.246094 0)"/>
       <use xlink:href="#DejaVuSans-30" transform="translate(190.869141 0)"/>
      </g>
     </g>
    </g>
    <g id="ytick_6">
     <g id="line2d_6">
      <g>
       <use xlink:href="#m4feb3bbbc0" x="57.44" y="184.602394" style="stroke: #000000; stroke-width: 0.8"/>
      </g>
     </g>
     <g id="text_7">
      <!-- 2500 -->
      <g transform="translate(24.99 188.401612) scale(0.1 -0.1)">
       <use xlink:href="#DejaVuSans-32"/>
       <use xlink:href="#DejaVuSans-35" transform="translate(63.623047 0)"/>
       <use xlink:href="#DejaVuSans-30" transform="translate(127.246094 0)"/>
       <use xlink:href="#DejaVuSans-30" transform="translate(190.869141 0)"/>
      </g>
     </g>
    </g>
    <g id="ytick_7">
     <g id="line2d_7">
      <g>
       <use xlink:href="#m4feb3bbbc0" x="57.44" y="140.098872" style="stroke: #000000; stroke-width: 0.8"/>
      </g>
     </g>
     <g id="text_8">
      <!-- 3000 -->
      <g transform="translate(24.99 143.898091) scale(0.1 -0.1)">
       <defs>
        <path id="DejaVuSans-33" d="M 2597 2516 
Q 3050 2419 3304 2112 
Q 3559 1806 3559 1356 
Q 3559 666 3084 287 
Q 2609 -91 1734 -91 
Q 1441 -91 1130 -33 
Q 819 25 488 141 
L 488 750 
Q 750 597 1062 519 
Q 1375 441 1716 441 
Q 2309 441 2620 675 
Q 2931 909 2931 1356 
Q 2931 1769 2642 2001 
Q 2353 2234 1838 2234 
L 1294 2234 
L 1294 2753 
L 1863 2753 
Q 2328 2753 2575 2939 
Q 2822 3125 2822 3475 
Q 2822 3834 2567 4026 
Q 2313 4219 1838 4219 
Q 1578 4219 1281 4162 
Q 984 4106 628 3988 
L 628 4550 
Q 988 4650 1302 4700 
Q 1616 4750 1894 4750 
Q 2613 4750 3031 4423 
Q 3450 4097 3450 3541 
Q 3450 3153 3228 2886 
Q 3006 2619 2597 2516 
z
" transform="scale(0.015625)"/>
       </defs>
       <use xlink:href="#DejaVuSans-33"/>
       <use xlink:href="#DejaVuSans-30" transform="translate(63.623047 0)"/>
       <use xlink:href="#DejaVuSans-30" transform="translate(127.246094 0)"/>
       <use xlink:href="#DejaVuSans-30" transform="translate(190.869141 0)"/>
      </g>
     </g>
    </g>
    <g id="ytick_8">
     <g id="line2d_8">
      <g>
       <use xlink:href="#m4feb3bbbc0" x="57.44" y="95.595351" style="stroke: #000000; stroke-width: 0.8"/>
      </g>
     </g>
     <g id="text_9">
      <!-- 3500 -->
      <g transform="translate(24.99 99.39457) scale(0.1 -0.1)">
       <use xlink:href="#DejaVuSans-33"/>
       <use xlink:href="#DejaVuSans-35" transform="translate(63.623047 0)"/>
       <use xlink:href="#DejaVuSans-30" transform="translate(127.246094 0)"/>
       <use xlink:href="#DejaVuSans-30" transform="translate(190.869141 0)"/>
      </g>
     </g>
    </g>
    <g id="ytick_9">
     <g id="line2d_9">
      <g>
       <use xlink:href="#m4feb3bbbc0" x="57.44" y="51.09183" style="stroke: #000000; stroke-width: 0.8"/>
      </g>
     </g>
     <g id="text_10">
      <!-- 4000 -->
      <g transform="translate(24.99 54.891048) scale(0.1 -0.1)">
       <defs>
        <path id="DejaVuSans-34" d="M 2419 4116 
L 825 1625 
L 2419 1625 
L 2419 4116 
z
M 2253 4666 
L 3047 4666 
L 3047 1625 
L 3713 1625 
L 3713 1100 
L 3047 1100 
L 3047 0 
L 2419 0 
L 2419 1100 
L 313 1100 
L 313 1709 
L 2253 4666 
z
" transform="scale(0.015625)"/>
       </defs>
       <use xlink:href="#DejaVuSans-34"/>
       <use xlink:href="#DejaVuSans-30" transform="translate(63.623047 0)"/>
       <use xlink:href="#DejaVuSans-30" transform="translate(127.246094 0)"/>
       <use xlink:href="#DejaVuSans-30" transform="translate(190.869141 0)"/>
      </g>
     </g>
    </g>
    <g id="text_11">
     <!-- Number of Businesses -->
     <g transform="translate(18.910312 272.0925) rotate(-90) scale(0.1 -0.1)">
      <defs>
       <path id="DejaVuSans-4e" d="M 628 4666 
L 1478 4666 
L 3547 763 
L 3547 4666 
L 4159 4666 
L 4159 0 
L 3309 0 
L 1241 3903 
L 1241 0 
L 628 0 
L 628 4666 
z
" transform="scale(0.015625)"/>
       <path id="DejaVuSans-75" d="M 544 1381 
L 544 3500 
L 1119 3500 
L 1119 1403 
Q 1119 906 1312 657 
Q 1506 409 1894 409 
Q 2359 409 2629 706 
Q 2900 1003 2900 1516 
L 2900 3500 
L 3475 3500 
L 3475 0 
L 2900 0 
L 2900 538 
Q 2691 219 2414 64 
Q 2138 -91 1772 -91 
Q 1169 -91 856 284 
Q 544 659 544 1381 
z
M 1991 3584 
L 1991 3584 
z
" transform="scale(0.015625)"/>
       <path id="DejaVuSans-6d" d="M 3328 2828 
Q 3544 3216 3844 3400 
Q 4144 3584 4550 3584 
Q 5097 3584 5394 3201 
Q 5691 2819 5691 2113 
L 5691 0 
L 5113 0 
L 5113 2094 
Q 5113 2597 4934 2840 
Q 4756 3084 4391 3084 
Q 3944 3084 3684 2787 
Q 3425 2491 3425 1978 
L 3425 0 
L 2847 0 
L 2847 2094 
Q 2847 2600 2669 2842 
Q 2491 3084 2119 3084 
Q 1678 3084 1418 2786 
Q 1159 2488 1159 1978 
L 1159 0 
L 581 0 
L 581 3500 
L 1159 3500 
L 1159 2956 
Q 1356 3278 1631 3431 
Q 1906 3584 2284 3584 
Q 2666 3584 2933 3390 
Q 3200 3197 3328 2828 
z
" transform="scale(0.015625)"/>
       <path id="DejaVuSans-62" d="M 3116 1747 
Q 3116 2381 2855 2742 
Q 2594 3103 2138 3103 
Q 1681 3103 1420 2742 
Q 1159 2381 1159 1747 
Q 1159 1113 1420 752 
Q 1681 391 2138 391 
Q 2594 391 2855 752 
Q 3116 1113 3116 1747 
z
M 1159 2969 
Q 1341 3281 1617 3432 
Q 1894 3584 2278 3584 
Q 2916 3584 3314 3078 
Q 3713 2572 3713 1747 
Q 3713 922 3314 415 
Q 2916 -91 2278 -91 
Q 1894 -91 1617 61 
Q 1341 213 1159 525 
L 1159 0 
L 581 0 
L 581 4863 
L 1159 4863 
L 1159 2969 
z
" transform="scale(0.015625)"/>
       <path id="DejaVuSans-20" transform="scale(0.015625)"/>
       <path id="DejaVuSans-66" d="M 2375 4863 
L 2375 4384 
L 1825 4384 
Q 1516 4384 1395 4259 
Q 1275 4134 1275 3809 
L 1275 3500 
L 2222 3500 
L 2222 3053 
L 1275 3053 
L 1275 0 
L 697 0 
L 697 3053 
L 147 3053 
L 147 3500 
L 697 3500 
L 697 3744 
Q 697 4328 969 4595 
Q 1241 4863 1831 4863 
L 2375 4863 
z
" transform="scale(0.015625)"/>
       <path id="DejaVuSans-42" d="M 1259 2228 
L 1259 519 
L 2272 519 
Q 2781 519 3026 730 
Q 3272 941 3272 1375 
Q 3272 1813 3026 2020 
Q 2781 2228 2272 2228 
L 1259 2228 
z
M 1259 4147 
L 1259 2741 
L 2194 2741 
Q 2656 2741 2882 2914 
Q 3109 3088 3109 3444 
Q 3109 3797 2882 3972 
Q 2656 4147 2194 4147 
L 1259 4147 
z
M 628 4666 
L 2241 4666 
Q 2963 4666 3353 4366 
Q 3744 4066 3744 3513 
Q 3744 3084 3544 2831 
Q 3344 2578 2956 2516 
Q 3422 2416 3680 2098 
Q 3938 1781 3938 1306 
Q 3938 681 3513 340 
Q 3088 0 2303 0 
L 628 0 
L 628 4666 
z
" transform="scale(0.015625)"/>
       <path id="DejaVuSans-73" d="M 2834 3397 
L 2834 2853 
Q 2591 2978 2328 3040 
Q 2066 3103 1784 3103 
Q 1356 3103 1142 2972 
Q 928 2841 928 2578 
Q 928 2378 1081 2264 
Q 1234 2150 1697 2047 
L 1894 2003 
Q 2506 1872 2764 1633 
Q 3022 1394 3022 966 
Q 3022 478 2636 193 
Q 2250 -91 1575 -91 
Q 1294 -91 989 -36 
Q 684 19 347 128 
L 347 722 
Q 666 556 975 473 
Q 1284 391 1588 391 
Q 1994 391 2212 530 
Q 2431 669 2431 922 
Q 2431 1156 2273 1281 
Q 2116 1406 1581 1522 
L 1381 1569 
Q 847 1681 609 1914 
Q 372 2147 372 2553 
Q 372 3047 722 3315 
Q 1072 3584 1716 3584 
Q 2034 3584 2315 3537 
Q 2597 3491 2834 3397 
z
" transform="scale(0.015625)"/>
       <path id="DejaVuSans-69" d="M 603 3500 
L 1178 3500 
L 1178 0 
L 603 0 
L 603 3500 
z
M 603 4863 
L 1178 4863 
L 1178 4134 
L 603 4134 
L 603 4863 
z
" transform="scale(0.015625)"/>
       <path id="DejaVuSans-6e" d="M 3513 2113 
L 3513 0 
L 2938 0 
L 2938 2094 
Q 2938 2591 2744 2837 
Q 2550 3084 2163 3084 
Q 1697 3084 1428 2787 
Q 1159 2491 1159 1978 
L 1159 0 
L 581 0 
L 581 3500 
L 1159 3500 
L 1159 2956 
Q 1366 3272 1645 3428 
Q 1925 3584 2291 3584 
Q 2894 3584 3203 3211 
Q 3513 2838 3513 2113 
z
" transform="scale(0.015625)"/>
      </defs>
      <use xlink:href="#DejaVuSans-4e"/>
      <use xlink:href="#DejaVuSans-75" transform="translate(74.804688 0)"/>
      <use xlink:href="#DejaVuSans-6d" transform="translate(138.183594 0)"/>
      <use xlink:href="#DejaVuSans-62" transform="translate(235.595703 0)"/>
      <use xlink:href="#DejaVuSans-65" transform="translate(299.072266 0)"/>
      <use xlink:href="#DejaVuSans-72" transform="translate(360.595703 0)"/>
      <use xlink:href="#DejaVuSans-20" transform="translate(401.708984 0)"/>
      <use xlink:href="#DejaVuSans-6f" transform="translate(433.496094 0)"/>
      <use xlink:href="#DejaVuSans-66" transform="translate(494.677734 0)"/>
      <use xlink:href="#DejaVuSans-20" transform="translate(529.882812 0)"/>
      <use xlink:href="#DejaVuSans-42" transform="translate(561.669922 0)"/>
      <use xlink:href="#DejaVuSans-75" transform="translate(630.273438 0)"/>
      <use xlink:href="#DejaVuSans-73" transform="translate(693.652344 0)"/>
      <use xlink:href="#DejaVuSans-69" transform="translate(745.751953 0)"/>
      <use xlink:href="#DejaVuSans-6e" transform="translate(773.535156 0)"/>
      <use xlink:href="#DejaVuSans-65" transform="translate(836.914062 0)"/>
      <use xlink:href="#DejaVuSans-73" transform="translate(898.4375 0)"/>
      <use xlink:href="#DejaVuSans-73" transform="translate(950.537109 0)"/>
      <use xlink:href="#DejaVuSans-65" transform="translate(1002.636719 0)"/>
      <use xlink:href="#DejaVuSans-73" transform="translate(1064.160156 0)"/>
     </g>
    </g>
   </g>
   <g id="patch_203">
    <path d="M 57.44 407.12 
L 57.44 25.44 
" style="fill: none; stroke: #000000; stroke-width: 0.8; stroke-linejoin: miter; stroke-linecap: square"/>
   </g>
   <g id="patch_204">
    <path d="M 853.2 407.12 
L 853.2 25.44 
" style="fill: none; stroke: #000000; stroke-width: 0.8; stroke-linejoin: miter; stroke-linecap: square"/>
   </g>
   <g id="patch_205">
    <path d="M 57.44 407.12 
L 853.2 407.12 
" style="fill: none; stroke: #000000; stroke-width: 0.8; stroke-linejoin: miter; stroke-linecap: square"/>
   </g>
   <g id="patch_206">
    <path d="M 57.44 25.44 
L 853.2 25.44 
" style="fill: none; stroke: #000000; stroke-width: 0.8; stroke-linejoin: miter; stroke-linecap: square"/>
   </g>
   <g id="text_12">
    <!-- Long tail of the Simple Categories -->
    <g transform="translate(353.441875 19.44) scale(0.12 -0.12)">
     <defs>
      <path id="DejaVuSans-4c" d="M 628 4666 
L 1259 4666 
L 1259 531 
L 3531 531 
L 3531 0 
L 628 0 
L 628 4666 
z
" transform="scale(0.015625)"/>
      <path id="DejaVuSans-6c" d="M 603 4863 
L 1178 4863 
L 1178 0 
L 603 0 
L 603 4863 
z
" transform="scale(0.015625)"/>
      <path id="DejaVuSans-68" d="M 3513 2113 
L 3513 0 
L 2938 0 
L 2938 2094 
Q 2938 2591 2744 2837 
Q 2550 3084 2163 3084 
Q 1697 3084 1428 2787 
Q 1159 2491 1159 1978 
L 1159 0 
L 581 0 
L 581 4863 
L 1159 4863 
L 1159 2956 
Q 1366 3272 1645 3428 
Q 1925 3584 2291 3584 
Q 2894 3584 3203 3211 
Q 3513 2838 3513 2113 
z
" transform="scale(0.015625)"/>
      <path id="DejaVuSans-53" d="M 3425 4513 
L 3425 3897 
Q 3066 4069 2747 4153 
Q 2428 4238 2131 4238 
Q 1616 4238 1336 4038 
Q 1056 3838 1056 3469 
Q 1056 3159 1242 3001 
Q 1428 2844 1947 2747 
L 2328 2669 
Q 3034 2534 3370 2195 
Q 3706 1856 3706 1288 
Q 3706 609 3251 259 
Q 2797 -91 1919 -91 
Q 1588 -91 1214 -16 
Q 841 59 441 206 
L 441 856 
Q 825 641 1194 531 
Q 1563 422 1919 422 
Q 2459 422 2753 634 
Q 3047 847 3047 1241 
Q 3047 1584 2836 1778 
Q 2625 1972 2144 2069 
L 1759 2144 
Q 1053 2284 737 2584 
Q 422 2884 422 3419 
Q 422 4038 858 4394 
Q 1294 4750 2059 4750 
Q 2388 4750 2728 4690 
Q 3069 4631 3425 4513 
z
" transform="scale(0.015625)"/>
      <path id="DejaVuSans-70" d="M 1159 525 
L 1159 -1331 
L 581 -1331 
L 581 3500 
L 1159 3500 
L 1159 2969 
Q 1341 3281 1617 3432 
Q 1894 3584 2278 3584 
Q 2916 3584 3314 3078 
Q 3713 2572 3713 1747 
Q 3713 922 3314 415 
Q 2916 -91 2278 -91 
Q 1894 -91 1617 61 
Q 1341 213 1159 525 
z
M 3116 1747 
Q 3116 2381 2855 2742 
Q 2594 3103 2138 3103 
Q 1681 3103 1420 2742 
Q 1159 2381 1159 1747 
Q 1159 1113 1420 752 
Q 1681 391 2138 391 
Q 2594 391 2855 752 
Q 3116 1113 3116 1747 
z
" transform="scale(0.015625)"/>
     </defs>
     <use xlink:href="#DejaVuSans-4c"/>
     <use xlink:href="#DejaVuSans-6f" transform="translate(53.962891 0)"/>
     <use xlink:href="#DejaVuSans-6e" transform="translate(115.144531 0)"/>
     <use xlink:href="#DejaVuSans-67" transform="translate(178.523438 0)"/>
     <use xlink:href="#DejaVuSans-20" transform="translate(242 0)"/>
     <use xlink:href="#DejaVuSans-74" transform="translate(273.787109 0)"/>
     <use xlink:href="#DejaVuSans-61" transform="translate(312.996094 0)"/>
     <use xlink:href="#DejaVuSans-69" transform="translate(374.275391 0)"/>
     <use xlink:href="#DejaVuSans-6c" transform="translate(402.058594 0)"/>
     <use xlink:href="#DejaVuSans-20" transform="translate(429.841797 0)"/>
     <use xlink:href="#DejaVuSans-6f" transform="translate(461.628906 0)"/>
     <use xlink:href="#DejaVuSans-66" transform="translate(522.810547 0)"/>
     <use xlink:href="#DejaVuSans-20" transform="translate(558.015625 0)"/>
     <use xlink:href="#DejaVuSans-74" transform="translate(589.802734 0)"/>
     <use xlink:href="#DejaVuSans-68" transform="translate(629.011719 0)"/>
     <use xlink:href="#DejaVuSans-65" transform="translate(692.390625 0)"/>
     <use xlink:href="#DejaVuSans-20" transform="translate(753.914062 0)"/>
     <use xlink:href="#DejaVuSans-53" transform="translate(785.701172 0)"/>
     <use xlink:href="#DejaVuSans-69" transform="translate(849.177734 0)"/>
     <use xlink:href="#DejaVuSans-6d" transform="translate(876.960938 0)"/>
     <use xlink:href="#DejaVuSans-70" transform="translate(974.373047 0)"/>
     <use xlink:href="#DejaVuSans-6c" transform="translate(1037.849609 0)"/>
     <use xlink:href="#DejaVuSans-65" transform="translate(1065.632812 0)"/>
     <use xlink:href="#DejaVuSans-20" transform="translate(1127.15625 0)"/>
     <use xlink:href="#DejaVuSans-43" transform="translate(1158.943359 0)"/>
     <use xlink:href="#DejaVuSans-61" transform="translate(1228.767578 0)"/>
     <use xlink:href="#DejaVuSans-74" transform="translate(1290.046875 0)"/>
     <use xlink:href="#DejaVuSans-65" transform="translate(1329.255859 0)"/>
     <use xlink:href="#DejaVuSans-67" transform="translate(1390.779297 0)"/>
     <use xlink:href="#DejaVuSans-6f" transform="translate(1454.255859 0)"/>
     <use xlink:href="#DejaVuSans-72" transform="translate(1515.4375 0)"/>
     <use xlink:href="#DejaVuSans-69" transform="translate(1556.550781 0)"/>
     <use xlink:href="#DejaVuSans-65" transform="translate(1584.333984 0)"/>
     <use xlink:href="#DejaVuSans-73" transform="translate(1645.857422 0)"/>
    </g>
   </g>
  </g>
 </g>
 <defs>
  <clipPath id="p42d268de62">
   <rect x="57.44" y="25.44" width="795.76" height="381.68"/>
  </clipPath>
 </defs>
</svg>
